solid D:/VSprojects/TaihuStone/model/ori/RockSetEr_rotated.stl
facet normal 0 0 0
outer loop
vertex 5.936616e-02 -1.771174e-01 -5.000000e-01
vertex 1.327688e-01 -1.679840e-01 -4.020556e-01
vertex 3.775415e-02 -2.058640e-01 -3.737505e-01
endloop
endfacet
facet normal 0 0 0
outer loop
vertex 5.936616e-02 -1.771174e-01 -5.000000e-01
vertex 6.029388e-02 -1.767939e-01 -5.000000e-01
vertex 1.327688e-01 -1.679840e-01 -4.020556e-01
endloop
endfacet
facet normal 0 0 0
outer loop
vertex 5.936616e-02 -1.771174e-01 -5.000000e-01
vertex 3.775415e-02 -2.058640e-01 -3.737505e-01
vertex 1.335332e-03 -1.869601e-01 -4.699819e-01
endloop
endfacet
facet normal 0 0 0
outer loop
vertex 5.763078e-02 -1.772162e-01 -5.000000e-01
vertex 5.936616e-02 -1.771174e-01 -5.000000e-01
vertex 1.335332e-03 -1.869601e-01 -4.699819e-01
endloop
endfacet
facet normal 0 0 0
outer loop
vertex 1.279861e-01 4.603278e-02 -5.000000e-01
vertex 7.644514e-02 9.653291e-02 -4.359772e-01
vertex 1.499950e-01 8.095098e-02 -4.198458e-01
endloop
endfacet
facet normal 0 0 0
outer loop
vertex 1.250579e-01 4.699067e-02 -5.000000e-01
vertex 7.644514e-02 9.653291e-02 -4.359772e-01
vertex 1.279861e-01 4.603278e-02 -5.000000e-01
endloop
endfacet
facet normal 0 0 0
outer loop
vertex 1.298005e-01 4.369849e-02 -5.000000e-01
vertex 1.499950e-01 8.095098e-02 -4.198458e-01
vertex 2.109203e-01 9.263710e-03 -4.113629e-01
endloop
endfacet
facet normal 0 0 0
outer loop
vertex 1.279861e-01 4.603278e-02 -5.000000e-01
vertex 1.499950e-01 8.095098e-02 -4.198458e-01
vertex 1.298005e-01 4.369849e-02 -5.000000e-01
endloop
endfacet
facet normal 0 0 0
outer loop
vertex -1.461198e-01 -1.102657e-01 -5.000000e-01
vertex -1.431771e-01 -2.115990e-01 -4.978306e-01
vertex -1.959008e-01 -1.526656e-01 -4.247104e-01
endloop
endfacet
facet normal 0 0 0
outer loop
vertex -1.461198e-01 -1.102657e-01 -5.000000e-01
vertex -1.427526e-01 -1.872782e-01 -5.000000e-01
vertex -1.431771e-01 -2.115990e-01 -4.978306e-01
endloop
endfacet
facet normal 0 0 0
outer loop
vertex -1.443503e-01 -1.027017e-01 -5.000000e-01
vertex -1.959008e-01 -1.526656e-01 -4.247104e-01
vertex -1.890547e-01 -5.090137e-02 -3.926758e-01
endloop
endfacet
facet normal 0 0 0
outer loop
vertex -1.461198e-01 -1.102657e-01 -5.000000e-01
vertex -1.959008e-01 -1.526656e-01 -4.247104e-01
vertex -1.443503e-01 -1.027017e-01 -5.000000e-01
endloop
endfacet
facet normal 0 0 0
outer loop
vertex -8.904108e-02 1.223428e-01 -5.000000e-01
vertex -1.688994e-01 1.420527e-01 -4.251108e-01
vertex -9.023094e-02 1.505115e-01 -4.307950e-01
endloop
endfacet
facet normal 0 0 0
outer loop
vertex -8.904108e-02 1.223428e-01 -5.000000e-01
vertex -9.023094e-02 1.505115e-01 -4.307950e-01
vertex -8.062889e-02 1.234961e-01 -5.000000e-01
endloop
endfacet
facet normal 0 0 0
outer loop
vertex -7.437457e-02 1.211368e-01 -5.000000e-01
vertex -9.023094e-02 1.505115e-01 -4.307950e-01
vertex -1.759631e-02 1.345557e-01 -3.969419e-01
endloop
endfacet
facet normal 0 0 0
outer loop
vertex -8.062889e-02 1.234961e-01 -5.000000e-01
vertex -9.023094e-02 1.505115e-01 -4.307950e-01
vertex -7.437457e-02 1.211368e-01 -5.000000e-01
endloop
endfacet
facet normal 0 0 0
outer loop
vertex 6.029388e-02 -1.767939e-01 -5.000000e-01
vertex 6.238071e-02 -1.750964e-01 -5.000000e-01
vertex 1.327688e-01 -1.679840e-01 -4.020556e-01
endloop
endfacet
facet normal 0 0 0
outer loop
vertex 6.238071e-02 -1.750964e-01 -5.000000e-01
vertex 1.272054e-01 -1.223622e-01 -5.000000e-01
vertex 1.327688e-01 -1.679840e-01 -4.020556e-01
endloop
endfacet
facet normal 0 0 0
outer loop
vertex 1.272054e-01 -1.223622e-01 -5.000000e-01
vertex 1.853803e-01 -9.186890e-02 -4.339471e-01
vertex 1.327688e-01 -1.679840e-01 -4.020556e-01
endloop
endfacet
facet normal 0 0 0
outer loop
vertex 1.272054e-01 -1.223622e-01 -5.000000e-01
vertex 1.355617e-01 -1.129560e-01 -5.000000e-01
vertex 1.853803e-01 -9.186890e-02 -4.339471e-01
endloop
endfacet
facet normal 0 0 0
outer loop
vertex 1.585903e-01 -3.516664e-02 -5.000000e-01
vertex 2.109203e-01 9.263710e-03 -4.113629e-01
vertex 1.853803e-01 -9.186890e-02 -4.339471e-01
endloop
endfacet
facet normal 0 0 0
outer loop
vertex 1.566924e-01 -4.913007e-02 -5.000000e-01
vertex 1.585903e-01 -3.516664e-02 -5.000000e-01
vertex 1.853803e-01 -9.186890e-02 -4.339471e-01
endloop
endfacet
facet normal 0 0 0
outer loop
vertex 1.298005e-01 4.369849e-02 -5.000000e-01
vertex 2.109203e-01 9.263710e-03 -4.113629e-01
vertex 1.585903e-01 -3.516664e-02 -5.000000e-01
endloop
endfacet
facet normal 0 0 0
outer loop
vertex 1.355617e-01 -1.129560e-01 -5.000000e-01
vertex 1.566924e-01 -4.913007e-02 -5.000000e-01
vertex 1.853803e-01 -9.186890e-02 -4.339471e-01
endloop
endfacet
facet normal 0 0 0
outer loop
vertex -1.596861e-01 -1.796642e-02 -5.000000e-01
vertex -1.890547e-01 -5.090137e-02 -3.926758e-01
vertex -1.717231e-01 4.340144e-02 -4.250847e-01
endloop
endfacet
facet normal 0 0 0
outer loop
vertex -1.596861e-01 -1.796642e-02 -5.000000e-01
vertex -1.717231e-01 4.340144e-02 -4.250847e-01
vertex -1.581631e-01 -2.784546e-03 -5.000000e-01
endloop
endfacet
facet normal 0 0 0
outer loop
vertex -1.596861e-01 -1.796642e-02 -5.000000e-01
vertex -1.443503e-01 -1.027017e-01 -5.000000e-01
vertex -1.890547e-01 -5.090137e-02 -3.926758e-01
endloop
endfacet
facet normal 0 0 0
outer loop
vertex -1.638997e-01 6.364477e-02 -5.000000e-01
vertex -1.717231e-01 4.340144e-02 -4.250847e-01
vertex -1.688994e-01 1.420527e-01 -4.251108e-01
endloop
endfacet
facet normal 0 0 0
outer loop
vertex -1.638997e-01 6.364477e-02 -5.000000e-01
vertex -1.688994e-01 1.420527e-01 -4.251108e-01
vertex -1.629509e-01 9.682126e-02 -5.000000e-01
endloop
endfacet
facet normal 0 0 0
outer loop
vertex -1.638997e-01 6.364477e-02 -5.000000e-01
vertex -1.627219e-01 5.000621e-02 -5.000000e-01
vertex -1.717231e-01 4.340144e-02 -4.250847e-01
endloop
endfacet
facet normal 0 0 0
outer loop
vertex -1.627219e-01 5.000621e-02 -5.000000e-01
vertex -1.581631e-01 -2.784546e-03 -5.000000e-01
vertex -1.717231e-01 4.340144e-02 -4.250847e-01
endloop
endfacet
facet normal 0 0 0
outer loop
vertex -1.629509e-01 9.682126e-02 -5.000000e-01
vertex -1.688994e-01 1.420527e-01 -4.251108e-01
vertex -8.904108e-02 1.223428e-01 -5.000000e-01
endloop
endfacet
facet normal 0 0 0
outer loop
vertex 4.632311e-02 8.256095e-02 -5.000000e-01
vertex 7.644514e-02 9.653291e-02 -4.359772e-01
vertex 1.250579e-01 4.699067e-02 -5.000000e-01
endloop
endfacet
facet normal 0 0 0
outer loop
vertex -7.437457e-02 1.211368e-01 -5.000000e-01
vertex -1.759631e-02 1.345557e-01 -3.969419e-01
vertex 1.096358e-02 9.184192e-02 -5.000000e-01
endloop
endfacet
facet normal 0 0 0
outer loop
vertex 1.096358e-02 9.184192e-02 -5.000000e-01
vertex -1.759631e-02 1.345557e-01 -3.969419e-01
vertex 7.644514e-02 9.653291e-02 -4.359772e-01
endloop
endfacet
facet normal 0 0 0
outer loop
vertex 1.096358e-02 9.184192e-02 -5.000000e-01
vertex 7.644514e-02 9.653291e-02 -4.359772e-01
vertex 4.632311e-02 8.256095e-02 -5.000000e-01
endloop
endfacet
facet normal 0 0 0
outer loop
vertex -4.557239e-02 -1.864555e-01 -5.000000e-01
vertex 1.335332e-03 -1.869601e-01 -4.699819e-01
vertex -5.056262e-02 -2.181278e-01 -4.347665e-01
endloop
endfacet
facet normal 0 0 0
outer loop
vertex -4.557239e-02 -1.864555e-01 -5.000000e-01
vertex -1.257670e-02 -1.770203e-01 -5.000000e-01
vertex 1.335332e-03 -1.869601e-01 -4.699819e-01
endloop
endfacet
facet normal 0 0 0
outer loop
vertex -4.557239e-02 -1.864555e-01 -5.000000e-01
vertex -5.056262e-02 -2.181278e-01 -4.347665e-01
vertex -1.431771e-01 -2.115990e-01 -4.978306e-01
endloop
endfacet
facet normal 0 0 0
outer loop
vertex -1.396706e-01 -2.097197e-01 -5.000000e-01
vertex -4.557239e-02 -1.864555e-01 -5.000000e-01
vertex -1.431771e-01 -2.115990e-01 -4.978306e-01
endloop
endfacet
facet normal 0 0 0
outer loop
vertex -1.427526e-01 -1.872782e-01 -5.000000e-01
vertex -1.396706e-01 -2.097197e-01 -5.000000e-01
vertex -1.431771e-01 -2.115990e-01 -4.978306e-01
endloop
endfacet
facet normal 0 0 0
outer loop
vertex -1.257670e-02 -1.770203e-01 -5.000000e-01
vertex 5.763078e-02 -1.772162e-01 -5.000000e-01
vertex 1.335332e-03 -1.869601e-01 -4.699819e-01
endloop
endfacet
facet normal 0 0 0
outer loop
vertex 1.231731e-01 -1.764831e-01 -1.245357e-02
vertex 1.665576e-01 -2.111568e-01 1.301343e-01
vertex 7.799975e-02 -2.160548e-01 5.245309e-02
endloop
endfacet
facet normal 0 0 0
outer loop
vertex 1.231731e-01 -1.764831e-01 -1.245357e-02
vertex 7.799975e-02 -2.160548e-01 5.245309e-02
vertex 5.989045e-02 -1.992356e-01 -4.080253e-02
endloop
endfacet
facet normal 0 0 0
outer loop
vertex 8.859818e-02 -1.791230e-01 -1.132701e-01
vertex 1.231731e-01 -1.764831e-01 -1.245357e-02
vertex 5.989045e-02 -1.992356e-01 -4.080253e-02
endloop
endfacet
facet normal 0 0 0
outer loop
vertex 8.859818e-02 -1.791230e-01 -1.132701e-01
vertex 5.989045e-02 -1.992356e-01 -4.080253e-02
vertex 1.466216e-02 -2.106209e-01 -1.429436e-01
endloop
endfacet
facet normal 0 0 0
outer loop
vertex 1.466216e-02 -2.106209e-01 -1.429436e-01
vertex 8.242204e-02 -2.000298e-01 -2.161504e-01
vertex 8.859818e-02 -1.791230e-01 -1.132701e-01
endloop
endfacet
facet normal 0 0 0
outer loop
vertex 8.859818e-02 -1.791230e-01 -1.132701e-01
vertex 8.242204e-02 -2.000298e-01 -2.161504e-01
vertex 1.292704e-01 -1.881986e-01 -1.594509e-01
endloop
endfacet
facet normal 0 0 0
outer loop
vertex 8.859818e-02 -1.791230e-01 -1.132701e-01
vertex 1.292704e-01 -1.881986e-01 -1.594509e-01
vertex 1.413679e-01 -1.640668e-01 -9.859185e-02
endloop
endfacet
facet normal 0 0 0
outer loop
vertex 1.292704e-01 -1.881986e-01 -1.594509e-01
vertex 1.913356e-01 -1.827553e-01 -1.349845e-01
vertex 1.413679e-01 -1.640668e-01 -9.859185e-02
endloop
endfacet
facet normal 0 0 0
outer loop
vertex 1.413679e-01 -1.640668e-01 -9.859185e-02
vertex 1.913356e-01 -1.827553e-01 -1.349845e-01
vertex 1.720313e-01 -1.819252e-01 -5.438555e-02
endloop
endfacet
facet normal 0 0 0
outer loop
vertex 1.231731e-01 -1.764831e-01 -1.245357e-02
vertex 1.413679e-01 -1.640668e-01 -9.859185e-02
vertex 1.720313e-01 -1.819252e-01 -5.438555e-02
endloop
endfacet
facet normal 0 0 0
outer loop
vertex 1.868311e-01 -1.910032e-01 1.700366e-02
vertex 1.231731e-01 -1.764831e-01 -1.245357e-02
vertex 1.720313e-01 -1.819252e-01 -5.438555e-02
endloop
endfacet
facet normal 0 0 0
outer loop
vertex 1.868311e-01 -1.910032e-01 1.700366e-02
vertex 1.720313e-01 -1.819252e-01 -5.438555e-02
vertex 2.141091e-01 -1.924467e-01 -3.779591e-02
endloop
endfacet
facet normal 0 0 0
outer loop
vertex 2.461328e-01 -2.042618e-01 4.760276e-02
vertex 1.868311e-01 -1.910032e-01 1.700366e-02
vertex 2.141091e-01 -1.924467e-01 -3.779591e-02
endloop
endfacet
facet normal 0 0 0
outer loop
vertex 2.651313e-01 -1.620696e-01 -4.553856e-02
vertex 2.461328e-01 -2.042618e-01 4.760276e-02
vertex 2.141091e-01 -1.924467e-01 -3.779591e-02
endloop
endfacet
facet normal 0 0 0
outer loop
vertex 2.141091e-01 -1.924467e-01 -3.779591e-02
vertex 1.913356e-01 -1.827553e-01 -1.349845e-01
vertex 2.651313e-01 -1.620696e-01 -4.553856e-02
endloop
endfacet
facet normal 0 0 0
outer loop
vertex 2.651313e-01 -1.620696e-01 -4.553856e-02
vertex 1.913356e-01 -1.827553e-01 -1.349845e-01
vertex 2.483738e-01 -1.308613e-01 -1.611577e-01
endloop
endfacet
facet normal 0 0 0
outer loop
vertex 2.651313e-01 -1.620696e-01 -4.553856e-02
vertex 2.483738e-01 -1.308613e-01 -1.611577e-01
vertex 2.930812e-01 -1.077342e-01 -8.226855e-02
endloop
endfacet
facet normal 0 0 0
outer loop
vertex 3.083123e-01 -1.151863e-01 6.892002e-03
vertex 2.651313e-01 -1.620696e-01 -4.553856e-02
vertex 2.930812e-01 -1.077342e-01 -8.226855e-02
endloop
endfacet
facet normal 0 0 0
outer loop
vertex 3.183773e-01 -4.612287e-02 -2.207309e-02
vertex 3.083123e-01 -1.151863e-01 6.892002e-03
vertex 2.930812e-01 -1.077342e-01 -8.226855e-02
endloop
endfacet
facet normal 0 0 0
outer loop
vertex 2.930812e-01 -1.077342e-01 -8.226855e-02
vertex 2.880856e-01 -6.999356e-02 -1.714057e-01
vertex 3.183773e-01 -4.612287e-02 -2.207309e-02
endloop
endfacet
facet normal 0 0 0
outer loop
vertex 3.183773e-01 -4.612287e-02 -2.207309e-02
vertex 2.880856e-01 -6.999356e-02 -1.714057e-01
vertex 2.806648e-01 1.618877e-02 -1.618348e-01
endloop
endfacet
facet normal 0 0 0
outer loop
vertex 2.979657e-01 2.965411e-02 -3.610837e-02
vertex 3.183773e-01 -4.612287e-02 -2.207309e-02
vertex 2.806648e-01 1.618877e-02 -1.618348e-01
endloop
endfacet
facet normal 0 0 0
outer loop
vertex 2.508887e-01 8.620832e-02 -8.936842e-02
vertex 2.979657e-01 2.965411e-02 -3.610837e-02
vertex 2.806648e-01 1.618877e-02 -1.618348e-01
endloop
endfacet
facet normal 0 0 0
outer loop
vertex 2.397410e-01 7.715040e-02 -1.980937e-01
vertex 2.508887e-01 8.620832e-02 -8.936842e-02
vertex 2.806648e-01 1.618877e-02 -1.618348e-01
endloop
endfacet
facet normal 0 0 0
outer loop
vertex 2.376014e-01 4.723833e-02 -2.819082e-01
vertex 2.397410e-01 7.715040e-02 -1.980937e-01
vertex 2.806648e-01 1.618877e-02 -1.618348e-01
endloop
endfacet
facet normal 0 0 0
outer loop
vertex 2.376014e-01 4.723833e-02 -2.819082e-01
vertex 2.806648e-01 1.618877e-02 -1.618348e-01
vertex 2.630344e-01 -2.854739e-02 -2.836043e-01
endloop
endfacet
facet normal 0 0 0
outer loop
vertex 2.109203e-01 9.263710e-03 -4.113629e-01
vertex 2.376014e-01 4.723833e-02 -2.819082e-01
vertex 2.630344e-01 -2.854739e-02 -2.836043e-01
endloop
endfacet
facet normal 0 0 0
outer loop
vertex 2.197480e-01 -6.821512e-02 -3.504995e-01
vertex 2.109203e-01 9.263710e-03 -4.113629e-01
vertex 2.630344e-01 -2.854739e-02 -2.836043e-01
endloop
endfacet
facet normal 0 0 0
outer loop
vertex 2.197480e-01 -6.821512e-02 -3.504995e-01
vertex 2.630344e-01 -2.854739e-02 -2.836043e-01
vertex 2.376147e-01 -9.877948e-02 -2.655888e-01
endloop
endfacet
facet normal 0 0 0
outer loop
vertex 1.843199e-01 -1.203329e-01 -3.336220e-01
vertex 2.197480e-01 -6.821512e-02 -3.504995e-01
vertex 2.376147e-01 -9.877948e-02 -2.655888e-01
endloop
endfacet
facet normal 0 0 0
outer loop
vertex 1.910443e-01 -1.450879e-01 -2.428897e-01
vertex 1.843199e-01 -1.203329e-01 -3.336220e-01
vertex 2.376147e-01 -9.877948e-02 -2.655888e-01
endloop
endfacet
facet normal 0 0 0
outer loop
vertex 1.910443e-01 -1.450879e-01 -2.428897e-01
vertex 2.376147e-01 -9.877948e-02 -2.655888e-01
vertex 2.483738e-01 -1.308613e-01 -1.611577e-01
endloop
endfacet
facet normal 0 0 0
outer loop
vertex 2.376147e-01 -9.877948e-02 -2.655888e-01
vertex 2.880856e-01 -6.999356e-02 -1.714057e-01
vertex 2.483738e-01 -1.308613e-01 -1.611577e-01
endloop
endfacet
facet normal 0 0 0
outer loop
vertex 1.910443e-01 -1.450879e-01 -2.428897e-01
vertex 1.433785e-01 -1.534832e-01 -3.054496e-01
vertex 1.843199e-01 -1.203329e-01 -3.336220e-01
endloop
endfacet
facet normal 0 0 0
outer loop
vertex 1.433785e-01 -1.534832e-01 -3.054496e-01
vertex 1.327688e-01 -1.679840e-01 -4.020556e-01
vertex 1.843199e-01 -1.203329e-01 -3.336220e-01
endloop
endfacet
facet normal 0 0 0
outer loop
vertex 1.843199e-01 -1.203329e-01 -3.336220e-01
vertex 1.327688e-01 -1.679840e-01 -4.020556e-01
vertex 1.853803e-01 -9.186890e-02 -4.339471e-01
endloop
endfacet
facet normal 0 0 0
outer loop
vertex 1.335332e-03 -1.869601e-01 -4.699819e-01
vertex 3.775415e-02 -2.058640e-01 -3.737505e-01
vertex -5.056262e-02 -2.181278e-01 -4.347665e-01
endloop
endfacet
facet normal 0 0 0
outer loop
vertex 3.775415e-02 -2.058640e-01 -3.737505e-01
vertex -4.902092e-02 -2.353294e-01 -2.733412e-01
vertex -5.056262e-02 -2.181278e-01 -4.347665e-01
endloop
endfacet
facet normal 0 0 0
outer loop
vertex -5.056262e-02 -2.181278e-01 -4.347665e-01
vertex -4.902092e-02 -2.353294e-01 -2.733412e-01
vertex -1.346810e-01 -2.442333e-01 -3.733232e-01
endloop
endfacet
facet normal 0 0 0
outer loop
vertex -1.431771e-01 -2.115990e-01 -4.978306e-01
vertex -5.056262e-02 -2.181278e-01 -4.347665e-01
vertex -1.346810e-01 -2.442333e-01 -3.733232e-01
endloop
endfacet
facet normal 0 0 0
outer loop
vertex -1.857230e-01 -2.169905e-01 -4.217151e-01
vertex -1.431771e-01 -2.115990e-01 -4.978306e-01
vertex -1.346810e-01 -2.442333e-01 -3.733232e-01
endloop
endfacet
facet normal 0 0 0
outer loop
vertex -2.003951e-01 -2.021366e-01 -3.419679e-01
vertex -1.857230e-01 -2.169905e-01 -4.217151e-01
vertex -1.346810e-01 -2.442333e-01 -3.733232e-01
endloop
endfacet
facet normal 0 0 0
outer loop
vertex -2.003951e-01 -2.021366e-01 -3.419679e-01
vertex -1.346810e-01 -2.442333e-01 -3.733232e-01
vertex -1.550692e-01 -2.293285e-01 -2.387617e-01
endloop
endfacet
facet normal 0 0 0
outer loop
vertex -2.326051e-01 -1.817331e-01 -2.264922e-01
vertex -2.003951e-01 -2.021366e-01 -3.419679e-01
vertex -1.550692e-01 -2.293285e-01 -2.387617e-01
endloop
endfacet
facet normal 0 0 0
outer loop
vertex -1.984101e-01 -2.212052e-01 -1.218680e-01
vertex -2.326051e-01 -1.817331e-01 -2.264922e-01
vertex -1.550692e-01 -2.293285e-01 -2.387617e-01
endloop
endfacet
facet normal 0 0 0
outer loop
vertex -1.984101e-01 -2.212052e-01 -1.218680e-01
vertex -1.550692e-01 -2.293285e-01 -2.387617e-01
vertex -1.014541e-01 -2.278727e-01 -7.542028e-02
endloop
endfacet
facet normal 0 0 0
outer loop
vertex -1.014541e-01 -2.278727e-01 -7.542028e-02
vertex -1.849098e-01 -2.209040e-01 -2.313674e-02
vertex -1.984101e-01 -2.212052e-01 -1.218680e-01
endloop
endfacet
facet normal 0 0 0
outer loop
vertex -1.984101e-01 -2.212052e-01 -1.218680e-01
vertex -1.849098e-01 -2.209040e-01 -2.313674e-02
vertex -2.417591e-01 -2.153156e-01 -3.757962e-02
endloop
endfacet
facet normal 0 0 0
outer loop
vertex -2.615714e-01 -1.894543e-01 -1.135895e-01
vertex -1.984101e-01 -2.212052e-01 -1.218680e-01
vertex -2.417591e-01 -2.153156e-01 -3.757962e-02
endloop
endfacet
facet normal 0 0 0
outer loop
vertex -2.735499e-01 -1.878938e-01 -4.817288e-02
vertex -2.615714e-01 -1.894543e-01 -1.135895e-01
vertex -2.417591e-01 -2.153156e-01 -3.757962e-02
endloop
endfacet
facet normal 0 0 0
outer loop
vertex -2.745434e-01 -1.722158e-01 1.794925e-02
vertex -2.735499e-01 -1.878938e-01 -4.817288e-02
vertex -2.417591e-01 -2.153156e-01 -3.757962e-02
endloop
endfacet
facet normal 0 0 0
outer loop
vertex -2.745434e-01 -1.722158e-01 1.794925e-02
vertex -2.417591e-01 -2.153156e-01 -3.757962e-02
vertex -2.228828e-01 -1.920034e-01 5.251680e-02
endloop
endfacet
facet normal 0 0 0
outer loop
vertex -2.701438e-01 -1.374270e-01 1.326343e-01
vertex -2.745434e-01 -1.722158e-01 1.794925e-02
vertex -2.228828e-01 -1.920034e-01 5.251680e-02
endloop
endfacet
facet normal 0 0 0
outer loop
vertex -2.204116e-01 -1.995059e-01 1.529559e-01
vertex -2.701438e-01 -1.374270e-01 1.326343e-01
vertex -2.228828e-01 -1.920034e-01 5.251680e-02
endloop
endfacet
facet normal 0 0 0
outer loop
vertex -2.204116e-01 -1.995059e-01 1.529559e-01
vertex -2.228828e-01 -1.920034e-01 5.251680e-02
vertex -1.678161e-01 -2.355667e-01 7.578541e-02
endloop
endfacet
facet normal 0 0 0
outer loop
vertex -2.204116e-01 -1.995059e-01 1.529559e-01
vertex -1.678161e-01 -2.355667e-01 7.578541e-02
vertex -1.606629e-01 -2.232634e-01 2.041787e-01
endloop
endfacet
facet normal 0 0 0
outer loop
vertex -2.204116e-01 -1.995059e-01 1.529559e-01
vertex -1.606629e-01 -2.232634e-01 2.041787e-01
vertex -2.300681e-01 -1.523852e-01 2.796921e-01
endloop
endfacet
facet normal 0 0 0
outer loop
vertex -1.606629e-01 -2.232634e-01 2.041787e-01
vertex -1.326249e-01 -2.015457e-01 3.202167e-01
vertex -2.300681e-01 -1.523852e-01 2.796921e-01
endloop
endfacet
facet normal 0 0 0
outer loop
vertex -2.300681e-01 -1.523852e-01 2.796921e-01
vertex -1.326249e-01 -2.015457e-01 3.202167e-01
vertex -1.854795e-01 -1.635913e-01 3.648380e-01
endloop
endfacet
facet normal 0 0 0
outer loop
vertex -2.294677e-01 -1.259886e-01 4.381094e-01
vertex -2.300681e-01 -1.523852e-01 2.796921e-01
vertex -1.854795e-01 -1.635913e-01 3.648380e-01
endloop
endfacet
facet normal 0 0 0
outer loop
vertex -1.494403e-01 -1.849160e-01 4.202506e-01
vertex -2.294677e-01 -1.259886e-01 4.381094e-01
vertex -1.854795e-01 -1.635913e-01 3.648380e-01
endloop
endfacet
facet normal 0 0 0
outer loop
vertex -2.294677e-01 -1.259886e-01 4.381094e-01
vertex -1.494403e-01 -1.849160e-01 4.202506e-01
vertex -1.260158e-01 -1.242603e-01 5.000000e-01
endloop
endfacet
facet normal 0 0 0
outer loop
vertex -1.668938e-01 -2.476407e-02 4.806736e-01
vertex -2.294677e-01 -1.259886e-01 4.381094e-01
vertex -1.260158e-01 -1.242603e-01 5.000000e-01
endloop
endfacet
facet normal 0 0 0
outer loop
vertex -1.668938e-01 -2.476407e-02 4.806736e-01
vertex -1.260158e-01 -1.242603e-01 5.000000e-01
vertex -7.510802e-02 -5.631569e-02 4.809406e-01
endloop
endfacet
facet normal 0 0 0
outer loop
vertex -5.128654e-02 3.413276e-02 4.231699e-01
vertex -1.668938e-01 -2.476407e-02 4.806736e-01
vertex -7.510802e-02 -5.631569e-02 4.809406e-01
endloop
endfacet
facet normal 0 0 0
outer loop
vertex -5.128654e-02 3.413276e-02 4.231699e-01
vertex -7.510802e-02 -5.631569e-02 4.809406e-01
vertex -1.414440e-02 -5.515143e-02 4.742882e-01
endloop
endfacet
facet normal 0 0 0
outer loop
vertex 5.235339e-02 -4.195557e-02 4.606916e-01
vertex -5.128654e-02 3.413276e-02 4.231699e-01
vertex -1.414440e-02 -5.515143e-02 4.742882e-01
endloop
endfacet
facet normal 0 0 0
outer loop
vertex 5.235339e-02 -4.195557e-02 4.606916e-01
vertex -1.414440e-02 -5.515143e-02 4.742882e-01
vertex 2.871429e-02 -1.012207e-01 4.806290e-01
endloop
endfacet
facet normal 0 0 0
outer loop
vertex 9.722587e-02 -1.213283e-01 4.675808e-01
vertex 5.235339e-02 -4.195557e-02 4.606916e-01
vertex 2.871429e-02 -1.012207e-01 4.806290e-01
endloop
endfacet
facet normal 0 0 0
outer loop
vertex 9.722587e-02 -1.213283e-01 4.675808e-01
vertex 2.871429e-02 -1.012207e-01 4.806290e-01
vertex 2.873353e-02 -1.683101e-01 4.575642e-01
endloop
endfacet
facet normal 0 0 0
outer loop
vertex 1.251861e-01 -2.247766e-01 4.097460e-01
vertex 9.722587e-02 -1.213283e-01 4.675808e-01
vertex 2.873353e-02 -1.683101e-01 4.575642e-01
endloop
endfacet
facet normal 0 0 0
outer loop
vertex 6.388480e-03 -2.230902e-01 3.824643e-01
vertex 1.251861e-01 -2.247766e-01 4.097460e-01
vertex 2.873353e-02 -1.683101e-01 4.575642e-01
endloop
endfacet
facet normal 0 0 0
outer loop
vertex 6.388480e-03 -2.230902e-01 3.824643e-01
vertex 2.873353e-02 -1.683101e-01 4.575642e-01
vertex -6.233048e-02 -1.858540e-01 4.407842e-01
endloop
endfacet
facet normal 0 0 0
outer loop
vertex -6.807996e-02 -2.188199e-01 3.674984e-01
vertex 6.388480e-03 -2.230902e-01 3.824643e-01
vertex -6.233048e-02 -1.858540e-01 4.407842e-01
endloop
endfacet
facet normal 0 0 0
outer loop
vertex -1.049000e-01 -2.042818e-01 3.901474e-01
vertex -6.807996e-02 -2.188199e-01 3.674984e-01
vertex -6.233048e-02 -1.858540e-01 4.407842e-01
endloop
endfacet
facet normal 0 0 0
outer loop
vertex -1.494403e-01 -1.849160e-01 4.202506e-01
vertex -1.049000e-01 -2.042818e-01 3.901474e-01
vertex -6.233048e-02 -1.858540e-01 4.407842e-01
endloop
endfacet
facet normal 0 0 0
outer loop
vertex -1.049000e-01 -2.042818e-01 3.901474e-01
vertex -1.494403e-01 -1.849160e-01 4.202506e-01
vertex -1.326249e-01 -2.015457e-01 3.202167e-01
endloop
endfacet
facet normal 0 0 0
outer loop
vertex -6.807996e-02 -2.188199e-01 3.674984e-01
vertex -1.049000e-01 -2.042818e-01 3.901474e-01
vertex -1.326249e-01 -2.015457e-01 3.202167e-01
endloop
endfacet
facet normal 0 0 0
outer loop
vertex -6.807996e-02 -2.188199e-01 3.674984e-01
vertex -1.326249e-01 -2.015457e-01 3.202167e-01
vertex -4.117132e-02 -2.402210e-01 2.781159e-01
endloop
endfacet
facet normal 0 0 0
outer loop
vertex -4.117132e-02 -2.402210e-01 2.781159e-01
vertex -1.326249e-01 -2.015457e-01 3.202167e-01
vertex -1.022209e-01 -2.220023e-01 2.327068e-01
endloop
endfacet
facet normal 0 0 0
outer loop
vertex -7.710058e-02 -2.400045e-01 1.301387e-01
vertex -4.117132e-02 -2.402210e-01 2.781159e-01
vertex -1.022209e-01 -2.220023e-01 2.327068e-01
endloop
endfacet
facet normal 0 0 0
outer loop
vertex -7.710058e-02 -2.400045e-01 1.301387e-01
vertex -1.022209e-01 -2.220023e-01 2.327068e-01
vertex -1.606629e-01 -2.232634e-01 2.041787e-01
endloop
endfacet
facet normal 0 0 0
outer loop
vertex -7.710058e-02 -2.400045e-01 1.301387e-01
vertex 4.505745e-02 -2.342927e-01 1.720812e-01
vertex -4.117132e-02 -2.402210e-01 2.781159e-01
endloop
endfacet
facet normal 0 0 0
outer loop
vertex -4.117132e-02 -2.402210e-01 2.781159e-01
vertex 4.505745e-02 -2.342927e-01 1.720812e-01
vertex 5.435846e-02 -2.530507e-01 3.056344e-01
endloop
endfacet
facet normal 0 0 0
outer loop
vertex 6.388480e-03 -2.230902e-01 3.824643e-01
vertex -4.117132e-02 -2.402210e-01 2.781159e-01
vertex 5.435846e-02 -2.530507e-01 3.056344e-01
endloop
endfacet
facet normal 0 0 0
outer loop
vertex 1.238376e-01 -2.356514e-01 2.642958e-01
vertex 5.435846e-02 -2.530507e-01 3.056344e-01
vertex 4.505745e-02 -2.342927e-01 1.720812e-01
endloop
endfacet
facet normal 0 0 0
outer loop
vertex 1.665576e-01 -2.111568e-01 1.301343e-01
vertex 1.238376e-01 -2.356514e-01 2.642958e-01
vertex 4.505745e-02 -2.342927e-01 1.720812e-01
endloop
endfacet
facet normal 0 0 0
outer loop
vertex 1.238376e-01 -2.356514e-01 2.642958e-01
vertex 1.665576e-01 -2.111568e-01 1.301343e-01
vertex 2.189098e-01 -2.545295e-01 2.936204e-01
endloop
endfacet
facet normal 0 0 0
outer loop
vertex 1.251861e-01 -2.247766e-01 4.097460e-01
vertex 1.238376e-01 -2.356514e-01 2.642958e-01
vertex 2.189098e-01 -2.545295e-01 2.936204e-01
endloop
endfacet
facet normal 0 0 0
outer loop
vertex 2.474441e-01 -1.990165e-01 4.229097e-01
vertex 1.251861e-01 -2.247766e-01 4.097460e-01
vertex 2.189098e-01 -2.545295e-01 2.936204e-01
endloop
endfacet
facet normal 0 0 0
outer loop
vertex 2.474441e-01 -1.990165e-01 4.229097e-01
vertex 2.189098e-01 -2.545295e-01 2.936204e-01
vertex 3.171255e-01 -2.034938e-01 3.247794e-01
endloop
endfacet
facet normal 0 0 0
outer loop
vertex 3.230395e-01 -1.706013e-01 4.162950e-01
vertex 2.474441e-01 -1.990165e-01 4.229097e-01
vertex 3.171255e-01 -2.034938e-01 3.247794e-01
endloop
endfacet
facet normal 0 0 0
outer loop
vertex 3.658758e-01 -1.183848e-01 3.542551e-01
vertex 3.230395e-01 -1.706013e-01 4.162950e-01
vertex 3.171255e-01 -2.034938e-01 3.247794e-01
endloop
endfacet
facet normal 0 0 0
outer loop
vertex 3.658758e-01 -1.183848e-01 3.542551e-01
vertex 3.171255e-01 -2.034938e-01 3.247794e-01
vertex 3.454195e-01 -1.463621e-01 2.309847e-01
endloop
endfacet
facet normal 0 0 0
outer loop
vertex 3.615575e-01 -6.213225e-02 2.430189e-01
vertex 3.658758e-01 -1.183848e-01 3.542551e-01
vertex 3.454195e-01 -1.463621e-01 2.309847e-01
endloop
endfacet
facet normal 0 0 0
outer loop
vertex 3.295012e-01 -9.443020e-02 1.179013e-01
vertex 3.615575e-01 -6.213225e-02 2.430189e-01
vertex 3.454195e-01 -1.463621e-01 2.309847e-01
endloop
endfacet
facet normal 0 0 0
outer loop
vertex 3.295012e-01 -9.443020e-02 1.179013e-01
vertex 3.454195e-01 -1.463621e-01 2.309847e-01
vertex 3.262632e-01 -1.568153e-01 1.514878e-01
endloop
endfacet
facet normal 0 0 0
outer loop
vertex 3.295012e-01 -9.443020e-02 1.179013e-01
vertex 3.262632e-01 -1.568153e-01 1.514878e-01
vertex 3.085163e-01 -1.649209e-01 7.127025e-02
endloop
endfacet
facet normal 0 0 0
outer loop
vertex 3.083123e-01 -1.151863e-01 6.892002e-03
vertex 3.295012e-01 -9.443020e-02 1.179013e-01
vertex 3.085163e-01 -1.649209e-01 7.127025e-02
endloop
endfacet
facet normal 0 0 0
outer loop
vertex 3.262632e-01 -1.568153e-01 1.514878e-01
vertex 2.965797e-01 -2.182468e-01 1.734206e-01
vertex 3.085163e-01 -1.649209e-01 7.127025e-02
endloop
endfacet
facet normal 0 0 0
outer loop
vertex 3.085163e-01 -1.649209e-01 7.127025e-02
vertex 2.965797e-01 -2.182468e-01 1.734206e-01
vertex 2.461328e-01 -2.042618e-01 4.760276e-02
endloop
endfacet
facet normal 0 0 0
outer loop
vertex 2.461328e-01 -2.042618e-01 4.760276e-02
vertex 2.965797e-01 -2.182468e-01 1.734206e-01
vertex 1.665576e-01 -2.111568e-01 1.301343e-01
endloop
endfacet
facet normal 0 0 0
outer loop
vertex 3.454195e-01 -1.463621e-01 2.309847e-01
vertex 2.965797e-01 -2.182468e-01 1.734206e-01
vertex 3.262632e-01 -1.568153e-01 1.514878e-01
endloop
endfacet
facet normal 0 0 0
outer loop
vertex 3.615575e-01 -6.213225e-02 2.430189e-01
vertex 3.295012e-01 -9.443020e-02 1.179013e-01
vertex 3.292603e-01 -2.621449e-02 1.642153e-01
endloop
endfacet
facet normal 0 0 0
outer loop
vertex 3.435373e-01 -1.984625e-03 2.457235e-01
vertex 3.615575e-01 -6.213225e-02 2.430189e-01
vertex 3.292603e-01 -2.621449e-02 1.642153e-01
endloop
endfacet
facet normal 0 0 0
outer loop
vertex 3.435373e-01 -1.984625e-03 2.457235e-01
vertex 3.292603e-01 -2.621449e-02 1.642153e-01
vertex 3.097044e-01 2.710431e-02 1.960368e-01
endloop
endfacet
facet normal 0 0 0
outer loop
vertex 3.257357e-01 2.804374e-02 2.649520e-01
vertex 3.435373e-01 -1.984625e-03 2.457235e-01
vertex 3.097044e-01 2.710431e-02 1.960368e-01
endloop
endfacet
facet normal 0 0 0
outer loop
vertex 2.980506e-01 7.505009e-02 2.641797e-01
vertex 3.257357e-01 2.804374e-02 2.649520e-01
vertex 3.097044e-01 2.710431e-02 1.960368e-01
endloop
endfacet
facet normal 0 0 0
outer loop
vertex 2.980506e-01 7.505009e-02 2.641797e-01
vertex 3.097044e-01 2.710431e-02 1.960368e-01
vertex 2.708052e-01 8.837373e-02 1.379676e-01
endloop
endfacet
facet normal 0 0 0
outer loop
vertex 2.183730e-01 1.450371e-01 2.399429e-01
vertex 2.980506e-01 7.505009e-02 2.641797e-01
vertex 2.708052e-01 8.837373e-02 1.379676e-01
endloop
endfacet
facet normal 0 0 0
outer loop
vertex 2.030277e-01 1.382775e-01 1.257988e-01
vertex 2.183730e-01 1.450371e-01 2.399429e-01
vertex 2.708052e-01 8.837373e-02 1.379676e-01
endloop
endfacet
facet normal 0 0 0
outer loop
vertex 2.228888e-01 1.170779e-01 2.841016e-02
vertex 2.030277e-01 1.382775e-01 1.257988e-01
vertex 2.708052e-01 8.837373e-02 1.379676e-01
endloop
endfacet
facet normal 0 0 0
outer loop
vertex 2.228888e-01 1.170779e-01 2.841016e-02
vertex 2.708052e-01 8.837373e-02 1.379676e-01
vertex 2.766670e-01 6.863005e-02 2.402417e-02
endloop
endfacet
facet normal 0 0 0
outer loop
vertex 2.508887e-01 8.620832e-02 -8.936842e-02
vertex 2.228888e-01 1.170779e-01 2.841016e-02
vertex 2.766670e-01 6.863005e-02 2.402417e-02
endloop
endfacet
facet normal 0 0 0
outer loop
vertex 2.228888e-01 1.170779e-01 2.841016e-02
vertex 2.508887e-01 8.620832e-02 -8.936842e-02
vertex 1.849340e-01 1.472751e-01 -7.475749e-02
endloop
endfacet
facet normal 0 0 0
outer loop
vertex 2.228888e-01 1.170779e-01 2.841016e-02
vertex 1.849340e-01 1.472751e-01 -7.475749e-02
vertex 1.373391e-01 1.596099e-01 4.841874e-02
endloop
endfacet
facet normal 0 0 0
outer loop
vertex 1.052674e-01 1.800371e-01 -8.069627e-02
vertex 1.373391e-01 1.596099e-01 4.841874e-02
vertex 1.849340e-01 1.472751e-01 -7.475749e-02
endloop
endfacet
facet normal 0 0 0
outer loop
vertex 1.052674e-01 1.800371e-01 -8.069627e-02
vertex 1.849340e-01 1.472751e-01 -7.475749e-02
vertex 1.487204e-01 1.846850e-01 -1.667631e-01
endloop
endfacet
facet normal 0 0 0
outer loop
vertex 9.326456e-02 1.847471e-01 -1.551606e-01
vertex 1.052674e-01 1.800371e-01 -8.069627e-02
vertex 1.487204e-01 1.846850e-01 -1.667631e-01
endloop
endfacet
facet normal 0 0 0
outer loop
vertex 9.326456e-02 1.847471e-01 -1.551606e-01
vertex 1.487204e-01 1.846850e-01 -1.667631e-01
vertex 9.160855e-02 1.817355e-01 -2.198845e-01
endloop
endfacet
facet normal 0 0 0
outer loop
vertex 2.511354e-02 2.021614e-01 -1.464438e-01
vertex 9.326456e-02 1.847471e-01 -1.551606e-01
vertex 9.160855e-02 1.817355e-01 -2.198845e-01
endloop
endfacet
facet normal 0 0 0
outer loop
vertex 3.607195e-02 1.721722e-01 -2.581843e-01
vertex 2.511354e-02 2.021614e-01 -1.464438e-01
vertex 9.160855e-02 1.817355e-01 -2.198845e-01
endloop
endfacet
facet normal 0 0 0
outer loop
vertex 3.607195e-02 1.721722e-01 -2.581843e-01
vertex 9.160855e-02 1.817355e-01 -2.198845e-01
vertex 8.284790e-02 1.535328e-01 -3.040363e-01
endloop
endfacet
facet normal 0 0 0
outer loop
vertex 2.974202e-02 1.440703e-01 -3.242188e-01
vertex 3.607195e-02 1.721722e-01 -2.581843e-01
vertex 8.284790e-02 1.535328e-01 -3.040363e-01
endloop
endfacet
facet normal 0 0 0
outer loop
vertex 5.774826e-02 1.241240e-01 -3.643024e-01
vertex 2.974202e-02 1.440703e-01 -3.242188e-01
vertex 8.284790e-02 1.535328e-01 -3.040363e-01
endloop
endfacet
facet normal 0 0 0
outer loop
vertex 5.774826e-02 1.241240e-01 -3.643024e-01
vertex 8.284790e-02 1.535328e-01 -3.040363e-01
vertex 1.212869e-01 1.247695e-01 -3.645902e-01
endloop
endfacet
facet normal 0 0 0
outer loop
vertex 5.774826e-02 1.241240e-01 -3.643024e-01
vertex 1.212869e-01 1.247695e-01 -3.645902e-01
vertex 7.644514e-02 9.653291e-02 -4.359772e-01
endloop
endfacet
facet normal 0 0 0
outer loop
vertex 5.774826e-02 1.241240e-01 -3.643024e-01
vertex 7.644514e-02 9.653291e-02 -4.359772e-01
vertex -1.759631e-02 1.345557e-01 -3.969419e-01
endloop
endfacet
facet normal 0 0 0
outer loop
vertex -1.717231e-01 4.340144e-02 -4.250847e-01
vertex -1.890547e-01 -5.090137e-02 -3.926758e-01
vertex -1.797554e-01 2.274354e-02 -3.293243e-01
endloop
endfacet
facet normal 0 0 0
outer loop
vertex -1.719965e-01 8.377144e-02 -3.348742e-01
vertex -1.717231e-01 4.340144e-02 -4.250847e-01
vertex -1.797554e-01 2.274354e-02 -3.293243e-01
endloop
endfacet
facet normal 0 0 0
outer loop
vertex -1.791268e-01 5.586900e-02 -2.891119e-01
vertex -1.719965e-01 8.377144e-02 -3.348742e-01
vertex -1.797554e-01 2.274354e-02 -3.293243e-01
endloop
endfacet
facet normal 0 0 0
outer loop
vertex -1.995332e-01 3.258650e-02 -2.554184e-01
vertex -1.791268e-01 5.586900e-02 -2.891119e-01
vertex -1.797554e-01 2.274354e-02 -3.293243e-01
endloop
endfacet
facet normal 0 0 0
outer loop
vertex -1.995332e-01 3.258650e-02 -2.554184e-01
vertex -1.797554e-01 2.274354e-02 -3.293243e-01
vertex -2.150104e-01 -1.449843e-02 -2.899888e-01
endloop
endfacet
facet normal 0 0 0
outer loop
vertex -2.235488e-01 4.603918e-04 -2.189177e-01
vertex -1.995332e-01 3.258650e-02 -2.554184e-01
vertex -2.150104e-01 -1.449843e-02 -2.899888e-01
endloop
endfacet
facet normal 0 0 0
outer loop
vertex -2.460364e-01 -3.564112e-02 -2.348480e-01
vertex -2.235488e-01 4.603918e-04 -2.189177e-01
vertex -2.150104e-01 -1.449843e-02 -2.899888e-01
endloop
endfacet
facet normal 0 0 0
outer loop
vertex -2.460364e-01 -3.564112e-02 -2.348480e-01
vertex -2.150104e-01 -1.449843e-02 -2.899888e-01
vertex -2.378847e-01 -6.572128e-02 -2.964459e-01
endloop
endfacet
facet normal 0 0 0
outer loop
vertex -2.540602e-01 -6.877174e-02 -2.437661e-01
vertex -2.460364e-01 -3.564112e-02 -2.348480e-01
vertex -2.378847e-01 -6.572128e-02 -2.964459e-01
endloop
endfacet
facet normal 0 0 0
outer loop
vertex -2.500979e-01 -1.084423e-01 -2.432797e-01
vertex -2.540602e-01 -6.877174e-02 -2.437661e-01
vertex -2.378847e-01 -6.572128e-02 -2.964459e-01
endloop
endfacet
facet normal 0 0 0
outer loop
vertex -2.500979e-01 -1.084423e-01 -2.432797e-01
vertex -2.378847e-01 -6.572128e-02 -2.964459e-01
vertex -2.140255e-01 -1.266010e-01 -3.227435e-01
endloop
endfacet
facet normal 0 0 0
outer loop
vertex -2.326051e-01 -1.817331e-01 -2.264922e-01
vertex -2.500979e-01 -1.084423e-01 -2.432797e-01
vertex -2.140255e-01 -1.266010e-01 -3.227435e-01
endloop
endfacet
facet normal 0 0 0
outer loop
vertex -2.500979e-01 -1.084423e-01 -2.432797e-01
vertex -2.326051e-01 -1.817331e-01 -2.264922e-01
vertex -2.534643e-01 -1.258842e-01 -1.499877e-01
endloop
endfacet
facet normal 0 0 0
outer loop
vertex -2.500979e-01 -1.084423e-01 -2.432797e-01
vertex -2.534643e-01 -1.258842e-01 -1.499877e-01
vertex -2.630048e-01 -6.849333e-02 -1.872995e-01
endloop
endfacet
facet normal 0 0 0
outer loop
vertex -2.534643e-01 -1.258842e-01 -1.499877e-01
vertex -2.728878e-01 -6.529483e-02 -7.704314e-02
vertex -2.630048e-01 -6.849333e-02 -1.872995e-01
endloop
endfacet
facet normal 0 0 0
outer loop
vertex -2.630048e-01 -6.849333e-02 -1.872995e-01
vertex -2.728878e-01 -6.529483e-02 -7.704314e-02
vertex -2.496891e-01 -1.670869e-02 -1.561734e-01
endloop
endfacet
facet normal 0 0 0
outer loop
vertex -2.460364e-01 -3.564112e-02 -2.348480e-01
vertex -2.630048e-01 -6.849333e-02 -1.872995e-01
vertex -2.496891e-01 -1.670869e-02 -1.561734e-01
endloop
endfacet
facet normal 0 0 0
outer loop
vertex -2.496891e-01 -1.670869e-02 -1.561734e-01
vertex -2.728878e-01 -6.529483e-02 -7.704314e-02
vertex -2.915962e-01 1.712304e-02 -7.812147e-02
endloop
endfacet
facet normal 0 0 0
outer loop
vertex -2.501320e-01 4.866175e-02 -1.771871e-01
vertex -2.496891e-01 -1.670869e-02 -1.561734e-01
vertex -2.915962e-01 1.712304e-02 -7.812147e-02
endloop
endfacet
facet normal 0 0 0
outer loop
vertex -2.915962e-01 1.712304e-02 -7.812147e-02
vertex -3.002396e-01 8.307531e-02 -1.003641e-01
vertex -2.501320e-01 4.866175e-02 -1.771871e-01
endloop
endfacet
facet normal 0 0 0
outer loop
vertex -3.002396e-01 8.307531e-02 -1.003641e-01
vertex -2.588103e-01 1.278279e-01 -1.859349e-01
vertex -2.501320e-01 4.866175e-02 -1.771871e-01
endloop
endfacet
facet normal 0 0 0
outer loop
vertex -2.501320e-01 4.866175e-02 -1.771871e-01
vertex -2.588103e-01 1.278279e-01 -1.859349e-01
vertex -2.071842e-01 8.385380e-02 -2.530570e-01
endloop
endfacet
facet normal 0 0 0
outer loop
vertex -1.995332e-01 3.258650e-02 -2.554184e-01
vertex -2.501320e-01 4.866175e-02 -1.771871e-01
vertex -2.071842e-01 8.385380e-02 -2.530570e-01
endloop
endfacet
facet normal 0 0 0
outer loop
vertex -2.071842e-01 8.385380e-02 -2.530570e-01
vertex -2.588103e-01 1.278279e-01 -1.859349e-01
vertex -2.214884e-01 1.334109e-01 -3.044189e-01
endloop
endfacet
facet normal 0 0 0
outer loop
vertex -1.719965e-01 8.377144e-02 -3.348742e-01
vertex -2.071842e-01 8.385380e-02 -2.530570e-01
vertex -2.214884e-01 1.334109e-01 -3.044189e-01
endloop
endfacet
facet normal 0 0 0
outer loop
vertex -1.688994e-01 1.420527e-01 -4.251108e-01
vertex -1.719965e-01 8.377144e-02 -3.348742e-01
vertex -2.214884e-01 1.334109e-01 -3.044189e-01
endloop
endfacet
facet normal 0 0 0
outer loop
vertex -1.761896e-01 1.871108e-01 -3.114769e-01
vertex -1.688994e-01 1.420527e-01 -4.251108e-01
vertex -2.214884e-01 1.334109e-01 -3.044189e-01
endloop
endfacet
facet normal 0 0 0
outer loop
vertex -1.761896e-01 1.871108e-01 -3.114769e-01
vertex -2.214884e-01 1.334109e-01 -3.044189e-01
vertex -2.194780e-01 1.746967e-01 -2.337808e-01
endloop
endfacet
facet normal 0 0 0
outer loop
vertex -1.806062e-01 2.165353e-01 -2.101481e-01
vertex -1.761896e-01 1.871108e-01 -3.114769e-01
vertex -2.194780e-01 1.746967e-01 -2.337808e-01
endloop
endfacet
facet normal 0 0 0
outer loop
vertex -1.806062e-01 2.165353e-01 -2.101481e-01
vertex -2.194780e-01 1.746967e-01 -2.337808e-01
vertex -2.439811e-01 1.952344e-01 -1.330308e-01
endloop
endfacet
facet normal 0 0 0
outer loop
vertex -1.730495e-01 2.467553e-01 -6.816641e-02
vertex -1.806062e-01 2.165353e-01 -2.101481e-01
vertex -2.439811e-01 1.952344e-01 -1.330308e-01
endloop
endfacet
facet normal 0 0 0
outer loop
vertex -2.562214e-01 2.086920e-01 -2.724130e-03
vertex -1.730495e-01 2.467553e-01 -6.816641e-02
vertex -2.439811e-01 1.952344e-01 -1.330308e-01
endloop
endfacet
facet normal 0 0 0
outer loop
vertex -2.562214e-01 2.086920e-01 -2.724130e-03
vertex -2.439811e-01 1.952344e-01 -1.330308e-01
vertex -2.921737e-01 1.452070e-01 -5.763862e-02
endloop
endfacet
facet normal 0 0 0
outer loop
vertex -2.921737e-01 1.452070e-01 -5.763862e-02
vertex -3.158610e-01 1.640394e-01 6.731486e-02
vertex -2.562214e-01 2.086920e-01 -2.724130e-03
endloop
endfacet
facet normal 0 0 0
outer loop
vertex -3.158610e-01 1.640394e-01 6.731486e-02
vertex -2.517585e-01 2.211040e-01 1.336489e-01
vertex -2.562214e-01 2.086920e-01 -2.724130e-03
endloop
endfacet
facet normal 0 0 0
outer loop
vertex -2.562214e-01 2.086920e-01 -2.724130e-03
vertex -2.517585e-01 2.211040e-01 1.336489e-01
vertex -2.155593e-01 2.406770e-01 3.561483e-02
endloop
endfacet
facet normal 0 0 0
outer loop
vertex -2.155593e-01 2.406770e-01 3.561483e-02
vertex -2.517585e-01 2.211040e-01 1.336489e-01
vertex -1.623421e-01 2.335813e-01 7.226522e-02
endloop
endfacet
facet normal 0 0 0
outer loop
vertex -1.623421e-01 2.335813e-01 7.226522e-02
vertex -1.730495e-01 2.467553e-01 -6.816641e-02
vertex -2.155593e-01 2.406770e-01 3.561483e-02
endloop
endfacet
facet normal 0 0 0
outer loop
vertex -1.730495e-01 2.467553e-01 -6.816641e-02
vertex -1.623421e-01 2.335813e-01 7.226522e-02
vertex -9.874395e-02 2.356634e-01 3.247413e-03
endloop
endfacet
facet normal 0 0 0
outer loop
vertex -7.182776e-02 2.311216e-01 -1.090244e-01
vertex -1.730495e-01 2.467553e-01 -6.816641e-02
vertex -9.874395e-02 2.356634e-01 3.247413e-03
endloop
endfacet
facet normal 0 0 0
outer loop
vertex -7.182776e-02 2.311216e-01 -1.090244e-01
vertex -9.874395e-02 2.356634e-01 3.247413e-03
vertex -3.129502e-02 2.190872e-01 -3.684221e-02
endloop
endfacet
facet normal 0 0 0
outer loop
vertex 2.511354e-02 2.021614e-01 -1.464438e-01
vertex -7.182776e-02 2.311216e-01 -1.090244e-01
vertex -3.129502e-02 2.190872e-01 -3.684221e-02
endloop
endfacet
facet normal 0 0 0
outer loop
vertex 3.571872e-02 2.014308e-01 1.610611e-02
vertex 2.511354e-02 2.021614e-01 -1.464438e-01
vertex -3.129502e-02 2.190872e-01 -3.684221e-02
endloop
endfacet
facet normal 0 0 0
outer loop
vertex -3.129502e-02 2.190872e-01 -3.684221e-02
vertex -4.894670e-02 2.214598e-01 5.754255e-02
vertex 3.571872e-02 2.014308e-01 1.610611e-02
endloop
endfacet
facet normal 0 0 0
outer loop
vertex 3.571872e-02 2.014308e-01 1.610611e-02
vertex -4.894670e-02 2.214598e-01 5.754255e-02
vertex -1.775844e-02 2.293302e-01 1.365401e-01
endloop
endfacet
facet normal 0 0 0
outer loop
vertex 6.272163e-02 1.882744e-01 1.495262e-01
vertex 3.571872e-02 2.014308e-01 1.610611e-02
vertex -1.775844e-02 2.293302e-01 1.365401e-01
endloop
endfacet
facet normal 0 0 0
outer loop
vertex -1.775844e-02 2.293302e-01 1.365401e-01
vertex 3.805746e-03 2.301758e-01 2.554054e-01
vertex 6.272163e-02 1.882744e-01 1.495262e-01
endloop
endfacet
facet normal 0 0 0
outer loop
vertex 3.805746e-03 2.301758e-01 2.554054e-01
vertex 8.732080e-02 1.776591e-01 2.555821e-01
vertex 6.272163e-02 1.882744e-01 1.495262e-01
endloop
endfacet
facet normal 0 0 0
outer loop
vertex 6.272163e-02 1.882744e-01 1.495262e-01
vertex 8.732080e-02 1.776591e-01 2.555821e-01
vertex 1.370889e-01 1.480024e-01 1.779299e-01
endloop
endfacet
facet normal 0 0 0
outer loop
vertex 1.370889e-01 1.480024e-01 1.779299e-01
vertex 1.373391e-01 1.596099e-01 4.841874e-02
vertex 6.272163e-02 1.882744e-01 1.495262e-01
endloop
endfacet
facet normal 0 0 0
outer loop
vertex 2.030277e-01 1.382775e-01 1.257988e-01
vertex 1.373391e-01 1.596099e-01 4.841874e-02
vertex 1.370889e-01 1.480024e-01 1.779299e-01
endloop
endfacet
facet normal 0 0 0
outer loop
vertex 1.370889e-01 1.480024e-01 1.779299e-01
vertex 8.732080e-02 1.776591e-01 2.555821e-01
vertex 1.440983e-01 1.579631e-01 2.496777e-01
endloop
endfacet
facet normal 0 0 0
outer loop
vertex 2.183730e-01 1.450371e-01 2.399429e-01
vertex 1.370889e-01 1.480024e-01 1.779299e-01
vertex 1.440983e-01 1.579631e-01 2.496777e-01
endloop
endfacet
facet normal 0 0 0
outer loop
vertex 1.373314e-01 1.377223e-01 3.259341e-01
vertex 2.183730e-01 1.450371e-01 2.399429e-01
vertex 1.440983e-01 1.579631e-01 2.496777e-01
endloop
endfacet
facet normal 0 0 0
outer loop
vertex 2.183730e-01 1.450371e-01 2.399429e-01
vertex 1.373314e-01 1.377223e-01 3.259341e-01
vertex 2.252540e-01 7.668843e-02 3.623049e-01
endloop
endfacet
facet normal 0 0 0
outer loop
vertex 1.373314e-01 1.377223e-01 3.259341e-01
vertex 1.044696e-01 3.684190e-02 4.003315e-01
vertex 2.252540e-01 7.668843e-02 3.623049e-01
endloop
endfacet
facet normal 0 0 0
outer loop
vertex 1.044696e-01 3.684190e-02 4.003315e-01
vertex 2.101998e-01 -2.758018e-02 4.201683e-01
vertex 2.252540e-01 7.668843e-02 3.623049e-01
endloop
endfacet
facet normal 0 0 0
outer loop
vertex 2.252540e-01 7.668843e-02 3.623049e-01
vertex 2.101998e-01 -2.758018e-02 4.201683e-01
vertex 3.287317e-01 -7.630098e-04 3.508232e-01
endloop
endfacet
facet normal 0 0 0
outer loop
vertex 2.980506e-01 7.505009e-02 2.641797e-01
vertex 2.252540e-01 7.668843e-02 3.623049e-01
vertex 3.287317e-01 -7.630098e-04 3.508232e-01
endloop
endfacet
facet normal 0 0 0
outer loop
vertex 3.287317e-01 -7.630098e-04 3.508232e-01
vertex 2.101998e-01 -2.758018e-02 4.201683e-01
vertex 2.860958e-01 -1.022685e-01 4.483916e-01
endloop
endfacet
facet normal 0 0 0
outer loop
vertex 3.658758e-01 -1.183848e-01 3.542551e-01
vertex 3.287317e-01 -7.630098e-04 3.508232e-01
vertex 2.860958e-01 -1.022685e-01 4.483916e-01
endloop
endfacet
facet normal 0 0 0
outer loop
vertex 2.860958e-01 -1.022685e-01 4.483916e-01
vertex 2.101998e-01 -2.758018e-02 4.201683e-01
vertex 1.842823e-01 -1.239833e-01 4.389890e-01
endloop
endfacet
facet normal 0 0 0
outer loop
vertex 2.474441e-01 -1.990165e-01 4.229097e-01
vertex 2.860958e-01 -1.022685e-01 4.483916e-01
vertex 1.842823e-01 -1.239833e-01 4.389890e-01
endloop
endfacet
facet normal 0 0 0
outer loop
vertex 1.842823e-01 -1.239833e-01 4.389890e-01
vertex 2.101998e-01 -2.758018e-02 4.201683e-01
vertex 1.329454e-01 -5.556181e-02 4.506111e-01
endloop
endfacet
facet normal 0 0 0
outer loop
vertex 9.722587e-02 -1.213283e-01 4.675808e-01
vertex 1.842823e-01 -1.239833e-01 4.389890e-01
vertex 1.329454e-01 -5.556181e-02 4.506111e-01
endloop
endfacet
facet normal 0 0 0
outer loop
vertex 1.329454e-01 -5.556181e-02 4.506111e-01
vertex 2.101998e-01 -2.758018e-02 4.201683e-01
vertex 1.044696e-01 3.684190e-02 4.003315e-01
endloop
endfacet
facet normal 0 0 0
outer loop
vertex 5.235339e-02 -4.195557e-02 4.606916e-01
vertex 1.329454e-01 -5.556181e-02 4.506111e-01
vertex 1.044696e-01 3.684190e-02 4.003315e-01
endloop
endfacet
facet normal 0 0 0
outer loop
vertex 1.373314e-01 1.377223e-01 3.259341e-01
vertex 3.028119e-02 1.447136e-01 3.498480e-01
vertex 1.044696e-01 3.684190e-02 4.003315e-01
endloop
endfacet
facet normal 0 0 0
outer loop
vertex 3.028119e-02 1.447136e-01 3.498480e-01
vertex -5.128654e-02 3.413276e-02 4.231699e-01
vertex 1.044696e-01 3.684190e-02 4.003315e-01
endloop
endfacet
facet normal 0 0 0
outer loop
vertex -1.136303e-01 1.968065e-01 3.474810e-01
vertex -5.128654e-02 3.413276e-02 4.231699e-01
vertex 3.028119e-02 1.447136e-01 3.498480e-01
endloop
endfacet
facet normal 0 0 0
outer loop
vertex -1.136303e-01 1.968065e-01 3.474810e-01
vertex 3.028119e-02 1.447136e-01 3.498480e-01
vertex 3.805746e-03 2.301758e-01 2.554054e-01
endloop
endfacet
facet normal 0 0 0
outer loop
vertex -9.308277e-02 2.545295e-01 2.093879e-01
vertex -1.136303e-01 1.968065e-01 3.474810e-01
vertex 3.805746e-03 2.301758e-01 2.554054e-01
endloop
endfacet
facet normal 0 0 0
outer loop
vertex -9.308277e-02 2.545295e-01 2.093879e-01
vertex -1.573249e-01 2.487820e-01 2.660774e-01
vertex -1.136303e-01 1.968065e-01 3.474810e-01
endloop
endfacet
facet normal 0 0 0
outer loop
vertex -1.573249e-01 2.487820e-01 2.660774e-01
vertex -1.846457e-01 2.345705e-01 3.135525e-01
vertex -1.136303e-01 1.968065e-01 3.474810e-01
endloop
endfacet
facet normal 0 0 0
outer loop
vertex -1.846457e-01 2.345705e-01 3.135525e-01
vertex -2.389642e-01 2.173314e-01 3.572388e-01
vertex -1.136303e-01 1.968065e-01 3.474810e-01
endloop
endfacet
facet normal 0 0 0
outer loop
vertex -2.389642e-01 2.173314e-01 3.572388e-01
vertex -2.301111e-01 9.670833e-02 4.396019e-01
vertex -1.136303e-01 1.968065e-01 3.474810e-01
endloop
endfacet
facet normal 0 0 0
outer loop
vertex -2.389642e-01 2.173314e-01 3.572388e-01
vertex -3.358309e-01 1.627104e-01 3.763668e-01
vertex -2.301111e-01 9.670833e-02 4.396019e-01
endloop
endfacet
facet normal 0 0 0
outer loop
vertex -3.358309e-01 1.627104e-01 3.763668e-01
vertex -3.340765e-01 8.814453e-02 4.332794e-01
vertex -2.301111e-01 9.670833e-02 4.396019e-01
endloop
endfacet
facet normal 0 0 0
outer loop
vertex -3.340765e-01 8.814453e-02 4.332794e-01
vertex -3.035229e-01 5.141554e-02 4.617882e-01
vertex -2.301111e-01 9.670833e-02 4.396019e-01
endloop
endfacet
facet normal 0 0 0
outer loop
vertex -3.035229e-01 5.141554e-02 4.617882e-01
vertex -2.786125e-01 -1.267117e-02 4.707948e-01
vertex -2.301111e-01 9.670833e-02 4.396019e-01
endloop
endfacet
facet normal 0 0 0
outer loop
vertex -2.786125e-01 -1.267117e-02 4.707948e-01
vertex -1.668938e-01 -2.476407e-02 4.806736e-01
vertex -2.301111e-01 9.670833e-02 4.396019e-01
endloop
endfacet
facet normal 0 0 0
outer loop
vertex -2.786125e-01 -1.267117e-02 4.707948e-01
vertex -3.035229e-01 5.141554e-02 4.617882e-01
vertex -3.348848e-01 1.822519e-02 3.986185e-01
endloop
endfacet
facet normal 0 0 0
outer loop
vertex -2.786125e-01 -1.267117e-02 4.707948e-01
vertex -3.348848e-01 1.822519e-02 3.986185e-01
vertex -2.976426e-01 -6.570283e-02 3.555767e-01
endloop
endfacet
facet normal 0 0 0
outer loop
vertex -2.294677e-01 -1.259886e-01 4.381094e-01
vertex -2.786125e-01 -1.267117e-02 4.707948e-01
vertex -2.976426e-01 -6.570283e-02 3.555767e-01
endloop
endfacet
facet normal 0 0 0
outer loop
vertex -3.348848e-01 1.822519e-02 3.986185e-01
vertex -3.469274e-01 -7.265588e-03 2.662131e-01
vertex -2.976426e-01 -6.570283e-02 3.555767e-01
endloop
endfacet
facet normal 0 0 0
outer loop
vertex -2.976426e-01 -6.570283e-02 3.555767e-01
vertex -3.469274e-01 -7.265588e-03 2.662131e-01
vertex -3.007325e-01 -8.827411e-02 2.379580e-01
endloop
endfacet
facet normal 0 0 0
outer loop
vertex -2.300681e-01 -1.523852e-01 2.796921e-01
vertex -2.976426e-01 -6.570283e-02 3.555767e-01
vertex -3.007325e-01 -8.827411e-02 2.379580e-01
endloop
endfacet
facet normal 0 0 0
outer loop
vertex -2.701438e-01 -1.374270e-01 1.326343e-01
vertex -2.300681e-01 -1.523852e-01 2.796921e-01
vertex -3.007325e-01 -8.827411e-02 2.379580e-01
endloop
endfacet
facet normal 0 0 0
outer loop
vertex -3.252120e-01 -5.758989e-02 1.433990e-01
vertex -2.701438e-01 -1.374270e-01 1.326343e-01
vertex -3.007325e-01 -8.827411e-02 2.379580e-01
endloop
endfacet
facet normal 0 0 0
outer loop
vertex -2.701438e-01 -1.374270e-01 1.326343e-01
vertex -3.252120e-01 -5.758989e-02 1.433990e-01
vertex -2.854021e-01 -9.905928e-02 3.501713e-02
endloop
endfacet
facet normal 0 0 0
outer loop
vertex -3.252120e-01 -5.758989e-02 1.433990e-01
vertex -3.195701e-01 -1.938826e-02 3.180848e-02
vertex -2.854021e-01 -9.905928e-02 3.501713e-02
endloop
endfacet
facet normal 0 0 0
outer loop
vertex -3.195701e-01 -1.938826e-02 3.180848e-02
vertex -2.728878e-01 -6.529483e-02 -7.704314e-02
vertex -2.854021e-01 -9.905928e-02 3.501713e-02
endloop
endfacet
facet normal 0 0 0
outer loop
vertex -2.854021e-01 -9.905928e-02 3.501713e-02
vertex -2.728878e-01 -6.529483e-02 -7.704314e-02
vertex -2.772816e-01 -1.409730e-01 -5.758623e-02
endloop
endfacet
facet normal 0 0 0
outer loop
vertex -2.745434e-01 -1.722158e-01 1.794925e-02
vertex -2.854021e-01 -9.905928e-02 3.501713e-02
vertex -2.772816e-01 -1.409730e-01 -5.758623e-02
endloop
endfacet
facet normal 0 0 0
outer loop
vertex -3.195701e-01 -1.938826e-02 3.180848e-02
vertex -3.252120e-01 -5.758989e-02 1.433990e-01
vertex -3.598931e-01 2.554753e-02 1.408645e-01
endloop
endfacet
facet normal 0 0 0
outer loop
vertex -3.407978e-01 7.607009e-02 1.667743e-02
vertex -3.195701e-01 -1.938826e-02 3.180848e-02
vertex -3.598931e-01 2.554753e-02 1.408645e-01
endloop
endfacet
facet normal 0 0 0
outer loop
vertex -3.593293e-01 1.113316e-01 1.492936e-01
vertex -3.407978e-01 7.607009e-02 1.667743e-02
vertex -3.598931e-01 2.554753e-02 1.408645e-01
endloop
endfacet
facet normal 0 0 0
outer loop
vertex -3.593293e-01 1.113316e-01 1.492936e-01
vertex -3.598931e-01 2.554753e-02 1.408645e-01
vertex -3.658758e-01 6.888248e-02 2.310288e-01
endloop
endfacet
facet normal 0 0 0
outer loop
vertex -3.545558e-01 1.373411e-01 2.584487e-01
vertex -3.593293e-01 1.113316e-01 1.492936e-01
vertex -3.658758e-01 6.888248e-02 2.310288e-01
endloop
endfacet
facet normal 0 0 0
outer loop
vertex -3.545558e-01 1.373411e-01 2.584487e-01
vertex -3.658758e-01 6.888248e-02 2.310288e-01
vertex -3.632903e-01 7.799973e-02 3.353691e-01
endloop
endfacet
facet normal 0 0 0
outer loop
vertex -3.358309e-01 1.627104e-01 3.763668e-01
vertex -3.545558e-01 1.373411e-01 2.584487e-01
vertex -3.632903e-01 7.799973e-02 3.353691e-01
endloop
endfacet
facet normal 0 0 0
outer loop
vertex -3.545558e-01 1.373411e-01 2.584487e-01
vertex -3.358309e-01 1.627104e-01 3.763668e-01
vertex -2.982042e-01 2.029756e-01 2.618514e-01
endloop
endfacet
facet normal 0 0 0
outer loop
vertex -3.545558e-01 1.373411e-01 2.584487e-01
vertex -2.982042e-01 2.029756e-01 2.618514e-01
vertex -3.218167e-01 1.717098e-01 1.746831e-01
endloop
endfacet
facet normal 0 0 0
outer loop
vertex -2.982042e-01 2.029756e-01 2.618514e-01
vertex -2.517585e-01 2.211040e-01 1.336489e-01
vertex -3.218167e-01 1.717098e-01 1.746831e-01
endloop
endfacet
facet normal 0 0 0
outer loop
vertex -2.190953e-01 2.340976e-01 2.529538e-01
vertex -2.517585e-01 2.211040e-01 1.336489e-01
vertex -2.982042e-01 2.029756e-01 2.618514e-01
endloop
endfacet
facet normal 0 0 0
outer loop
vertex -2.389642e-01 2.173314e-01 3.572388e-01
vertex -2.190953e-01 2.340976e-01 2.529538e-01
vertex -2.982042e-01 2.029756e-01 2.618514e-01
endloop
endfacet
facet normal 0 0 0
outer loop
vertex -1.688115e-01 2.406238e-01 1.790088e-01
vertex -2.517585e-01 2.211040e-01 1.336489e-01
vertex -2.190953e-01 2.340976e-01 2.529538e-01
endloop
endfacet
facet normal 0 0 0
outer loop
vertex -1.573249e-01 2.487820e-01 2.660774e-01
vertex -1.688115e-01 2.406238e-01 1.790088e-01
vertex -2.190953e-01 2.340976e-01 2.529538e-01
endloop
endfacet
facet normal 0 0 0
outer loop
vertex -3.658758e-01 6.888248e-02 2.310288e-01
vertex -3.469274e-01 -7.265588e-03 2.662131e-01
vertex -3.632903e-01 7.799973e-02 3.353691e-01
endloop
endfacet
facet normal 0 0 0
outer loop
vertex -3.593293e-01 1.113316e-01 1.492936e-01
vertex -3.545558e-01 1.373411e-01 2.584487e-01
vertex -3.218167e-01 1.717098e-01 1.746831e-01
endloop
endfacet
facet normal 0 0 0
outer loop
vertex -3.593293e-01 1.113316e-01 1.492936e-01
vertex -3.218167e-01 1.717098e-01 1.746831e-01
vertex -3.158610e-01 1.640394e-01 6.731486e-02
endloop
endfacet
facet normal 0 0 0
outer loop
vertex -3.598931e-01 2.554753e-02 1.408645e-01
vertex -3.469274e-01 -7.265588e-03 2.662131e-01
vertex -3.658758e-01 6.888248e-02 2.310288e-01
endloop
endfacet
facet normal 0 0 0
outer loop
vertex -3.407978e-01 7.607009e-02 1.667743e-02
vertex -3.593293e-01 1.113316e-01 1.492936e-01
vertex -3.158610e-01 1.640394e-01 6.731486e-02
endloop
endfacet
facet normal 0 0 0
outer loop
vertex -3.195701e-01 -1.938826e-02 3.180848e-02
vertex -3.407978e-01 7.607009e-02 1.667743e-02
vertex -2.915962e-01 1.712304e-02 -7.812147e-02
endloop
endfacet
facet normal 0 0 0
outer loop
vertex -3.252120e-01 -5.758989e-02 1.433990e-01
vertex -3.469274e-01 -7.265588e-03 2.662131e-01
vertex -3.598931e-01 2.554753e-02 1.408645e-01
endloop
endfacet
facet normal 0 0 0
outer loop
vertex -3.007325e-01 -8.827411e-02 2.379580e-01
vertex -3.469274e-01 -7.265588e-03 2.662131e-01
vertex -3.252120e-01 -5.758989e-02 1.433990e-01
endloop
endfacet
facet normal 0 0 0
outer loop
vertex -3.632903e-01 7.799973e-02 3.353691e-01
vertex -3.469274e-01 -7.265588e-03 2.662131e-01
vertex -3.348848e-01 1.822519e-02 3.986185e-01
endloop
endfacet
facet normal 0 0 0
outer loop
vertex -3.340765e-01 8.814453e-02 4.332794e-01
vertex -3.632903e-01 7.799973e-02 3.353691e-01
vertex -3.348848e-01 1.822519e-02 3.986185e-01
endloop
endfacet
facet normal 0 0 0
outer loop
vertex -3.035229e-01 5.141554e-02 4.617882e-01
vertex -3.340765e-01 8.814453e-02 4.332794e-01
vertex -3.348848e-01 1.822519e-02 3.986185e-01
endloop
endfacet
facet normal 0 0 0
outer loop
vertex -3.340765e-01 8.814453e-02 4.332794e-01
vertex -3.358309e-01 1.627104e-01 3.763668e-01
vertex -3.632903e-01 7.799973e-02 3.353691e-01
endloop
endfacet
facet normal 0 0 0
outer loop
vertex -3.358309e-01 1.627104e-01 3.763668e-01
vertex -2.389642e-01 2.173314e-01 3.572388e-01
vertex -2.982042e-01 2.029756e-01 2.618514e-01
endloop
endfacet
facet normal 0 0 0
outer loop
vertex -2.389642e-01 2.173314e-01 3.572388e-01
vertex -1.846457e-01 2.345705e-01 3.135525e-01
vertex -2.190953e-01 2.340976e-01 2.529538e-01
endloop
endfacet
facet normal 0 0 0
outer loop
vertex -1.846457e-01 2.345705e-01 3.135525e-01
vertex -1.573249e-01 2.487820e-01 2.660774e-01
vertex -2.190953e-01 2.340976e-01 2.529538e-01
endloop
endfacet
facet normal 0 0 0
outer loop
vertex -1.573249e-01 2.487820e-01 2.660774e-01
vertex -9.308277e-02 2.545295e-01 2.093879e-01
vertex -1.688115e-01 2.406238e-01 1.790088e-01
endloop
endfacet
facet normal 0 0 0
outer loop
vertex -9.308277e-02 2.545295e-01 2.093879e-01
vertex -1.213581e-01 2.367976e-01 1.346027e-01
vertex -1.688115e-01 2.406238e-01 1.790088e-01
endloop
endfacet
facet normal 0 0 0
outer loop
vertex -1.213581e-01 2.367976e-01 1.346027e-01
vertex -1.623421e-01 2.335813e-01 7.226522e-02
vertex -1.688115e-01 2.406238e-01 1.790088e-01
endloop
endfacet
facet normal 0 0 0
outer loop
vertex -1.623421e-01 2.335813e-01 7.226522e-02
vertex -1.213581e-01 2.367976e-01 1.346027e-01
vertex -1.026247e-01 2.293459e-01 8.032162e-02
endloop
endfacet
facet normal 0 0 0
outer loop
vertex -1.213581e-01 2.367976e-01 1.346027e-01
vertex -7.735261e-02 2.339699e-01 1.257965e-01
vertex -1.026247e-01 2.293459e-01 8.032162e-02
endloop
endfacet
facet normal 0 0 0
outer loop
vertex -7.735261e-02 2.339699e-01 1.257965e-01
vertex -4.894670e-02 2.214598e-01 5.754255e-02
vertex -1.026247e-01 2.293459e-01 8.032162e-02
endloop
endfacet
facet normal 0 0 0
outer loop
vertex -1.026247e-01 2.293459e-01 8.032162e-02
vertex -4.894670e-02 2.214598e-01 5.754255e-02
vertex -9.874395e-02 2.356634e-01 3.247413e-03
endloop
endfacet
facet normal 0 0 0
outer loop
vertex -1.213581e-01 2.367976e-01 1.346027e-01
vertex -9.308277e-02 2.545295e-01 2.093879e-01
vertex -7.735261e-02 2.339699e-01 1.257965e-01
endloop
endfacet
facet normal 0 0 0
outer loop
vertex -9.308277e-02 2.545295e-01 2.093879e-01
vertex -1.775844e-02 2.293302e-01 1.365401e-01
vertex -7.735261e-02 2.339699e-01 1.257965e-01
endloop
endfacet
facet normal 0 0 0
outer loop
vertex -2.301111e-01 9.670833e-02 4.396019e-01
vertex -5.128654e-02 3.413276e-02 4.231699e-01
vertex -1.136303e-01 1.968065e-01 3.474810e-01
endloop
endfacet
facet normal 0 0 0
outer loop
vertex 1.373314e-01 1.377223e-01 3.259341e-01
vertex 8.732080e-02 1.776591e-01 2.555821e-01
vertex 3.028119e-02 1.447136e-01 3.498480e-01
endloop
endfacet
facet normal 0 0 0
outer loop
vertex 1.440983e-01 1.579631e-01 2.496777e-01
vertex 8.732080e-02 1.776591e-01 2.555821e-01
vertex 1.373314e-01 1.377223e-01 3.259341e-01
endloop
endfacet
facet normal 0 0 0
outer loop
vertex 3.028119e-02 1.447136e-01 3.498480e-01
vertex 8.732080e-02 1.776591e-01 2.555821e-01
vertex 3.805746e-03 2.301758e-01 2.554054e-01
endloop
endfacet
facet normal 0 0 0
outer loop
vertex -1.775844e-02 2.293302e-01 1.365401e-01
vertex -9.308277e-02 2.545295e-01 2.093879e-01
vertex 3.805746e-03 2.301758e-01 2.554054e-01
endloop
endfacet
facet normal 0 0 0
outer loop
vertex 3.571872e-02 2.014308e-01 1.610611e-02
vertex 6.272163e-02 1.882744e-01 1.495262e-01
vertex 1.373391e-01 1.596099e-01 4.841874e-02
endloop
endfacet
facet normal 0 0 0
outer loop
vertex -1.775844e-02 2.293302e-01 1.365401e-01
vertex -4.894670e-02 2.214598e-01 5.754255e-02
vertex -7.735261e-02 2.339699e-01 1.257965e-01
endloop
endfacet
facet normal 0 0 0
outer loop
vertex 2.511354e-02 2.021614e-01 -1.464438e-01
vertex 3.571872e-02 2.014308e-01 1.610611e-02
vertex 1.052674e-01 1.800371e-01 -8.069627e-02
endloop
endfacet
facet normal 0 0 0
outer loop
vertex -7.182776e-02 2.311216e-01 -1.090244e-01
vertex 2.511354e-02 2.021614e-01 -1.464438e-01
vertex -4.561287e-02 2.122709e-01 -1.979137e-01
endloop
endfacet
facet normal 0 0 0
outer loop
vertex -7.182776e-02 2.311216e-01 -1.090244e-01
vertex -4.561287e-02 2.122709e-01 -1.979137e-01
vertex -1.119793e-01 2.242606e-01 -1.953099e-01
endloop
endfacet
facet normal 0 0 0
outer loop
vertex -4.561287e-02 2.122709e-01 -1.979137e-01
vertex -6.007161e-02 1.902475e-01 -2.852087e-01
vertex -1.119793e-01 2.242606e-01 -1.953099e-01
endloop
endfacet
facet normal 0 0 0
outer loop
vertex -1.119793e-01 2.242606e-01 -1.953099e-01
vertex -6.007161e-02 1.902475e-01 -2.852087e-01
vertex -1.271415e-01 2.016560e-01 -2.757614e-01
endloop
endfacet
facet normal 0 0 0
outer loop
vertex -1.806062e-01 2.165353e-01 -2.101481e-01
vertex -1.119793e-01 2.242606e-01 -1.953099e-01
vertex -1.271415e-01 2.016560e-01 -2.757614e-01
endloop
endfacet
facet normal 0 0 0
outer loop
vertex -1.271415e-01 2.016560e-01 -2.757614e-01
vertex -6.007161e-02 1.902475e-01 -2.852087e-01
vertex -1.046073e-01 1.789948e-01 -3.633997e-01
endloop
endfacet
facet normal 0 0 0
outer loop
vertex -1.761896e-01 1.871108e-01 -3.114769e-01
vertex -1.271415e-01 2.016560e-01 -2.757614e-01
vertex -1.046073e-01 1.789948e-01 -3.633997e-01
endloop
endfacet
facet normal 0 0 0
outer loop
vertex -1.046073e-01 1.789948e-01 -3.633997e-01
vertex -6.007161e-02 1.902475e-01 -2.852087e-01
vertex -1.759631e-02 1.345557e-01 -3.969419e-01
endloop
endfacet
facet normal 0 0 0
outer loop
vertex -1.759631e-02 1.345557e-01 -3.969419e-01
vertex -6.007161e-02 1.902475e-01 -2.852087e-01
vertex -3.510643e-03 1.685557e-01 -3.027703e-01
endloop
endfacet
facet normal 0 0 0
outer loop
vertex 2.974202e-02 1.440703e-01 -3.242188e-01
vertex -1.759631e-02 1.345557e-01 -3.969419e-01
vertex -3.510643e-03 1.685557e-01 -3.027703e-01
endloop
endfacet
facet normal 0 0 0
outer loop
vertex -3.510643e-03 1.685557e-01 -3.027703e-01
vertex -6.007161e-02 1.902475e-01 -2.852087e-01
vertex -8.292519e-03 1.940354e-01 -2.425022e-01
endloop
endfacet
facet normal 0 0 0
outer loop
vertex 3.607195e-02 1.721722e-01 -2.581843e-01
vertex -3.510643e-03 1.685557e-01 -3.027703e-01
vertex -8.292519e-03 1.940354e-01 -2.425022e-01
endloop
endfacet
facet normal 0 0 0
outer loop
vertex -8.292519e-03 1.940354e-01 -2.425022e-01
vertex -6.007161e-02 1.902475e-01 -2.852087e-01
vertex -4.561287e-02 2.122709e-01 -1.979137e-01
endloop
endfacet
facet normal 0 0 0
outer loop
vertex 2.511354e-02 2.021614e-01 -1.464438e-01
vertex -8.292519e-03 1.940354e-01 -2.425022e-01
vertex -4.561287e-02 2.122709e-01 -1.979137e-01
endloop
endfacet
facet normal 0 0 0
outer loop
vertex -9.874395e-02 2.356634e-01 3.247413e-03
vertex -4.894670e-02 2.214598e-01 5.754255e-02
vertex -3.129502e-02 2.190872e-01 -3.684221e-02
endloop
endfacet
facet normal 0 0 0
outer loop
vertex -1.730495e-01 2.467553e-01 -6.816641e-02
vertex -7.182776e-02 2.311216e-01 -1.090244e-01
vertex -1.119793e-01 2.242606e-01 -1.953099e-01
endloop
endfacet
facet normal 0 0 0
outer loop
vertex -1.623421e-01 2.335813e-01 7.226522e-02
vertex -1.026247e-01 2.293459e-01 8.032162e-02
vertex -9.874395e-02 2.356634e-01 3.247413e-03
endloop
endfacet
facet normal 0 0 0
outer loop
vertex -1.623421e-01 2.335813e-01 7.226522e-02
vertex -2.517585e-01 2.211040e-01 1.336489e-01
vertex -1.688115e-01 2.406238e-01 1.790088e-01
endloop
endfacet
facet normal 0 0 0
outer loop
vertex -3.218167e-01 1.717098e-01 1.746831e-01
vertex -2.517585e-01 2.211040e-01 1.336489e-01
vertex -3.158610e-01 1.640394e-01 6.731486e-02
endloop
endfacet
facet normal 0 0 0
outer loop
vertex -2.921737e-01 1.452070e-01 -5.763862e-02
vertex -3.407978e-01 7.607009e-02 1.667743e-02
vertex -3.158610e-01 1.640394e-01 6.731486e-02
endloop
endfacet
facet normal 0 0 0
outer loop
vertex -3.407978e-01 7.607009e-02 1.667743e-02
vertex -2.921737e-01 1.452070e-01 -5.763862e-02
vertex -3.002396e-01 8.307531e-02 -1.003641e-01
endloop
endfacet
facet normal 0 0 0
outer loop
vertex -2.439811e-01 1.952344e-01 -1.330308e-01
vertex -2.588103e-01 1.278279e-01 -1.859349e-01
vertex -2.921737e-01 1.452070e-01 -5.763862e-02
endloop
endfacet
facet normal 0 0 0
outer loop
vertex -1.730495e-01 2.467553e-01 -6.816641e-02
vertex -2.562214e-01 2.086920e-01 -2.724130e-03
vertex -2.155593e-01 2.406770e-01 3.561483e-02
endloop
endfacet
facet normal 0 0 0
outer loop
vertex -1.806062e-01 2.165353e-01 -2.101481e-01
vertex -1.730495e-01 2.467553e-01 -6.816641e-02
vertex -1.119793e-01 2.242606e-01 -1.953099e-01
endloop
endfacet
facet normal 0 0 0
outer loop
vertex -2.194780e-01 1.746967e-01 -2.337808e-01
vertex -2.588103e-01 1.278279e-01 -1.859349e-01
vertex -2.439811e-01 1.952344e-01 -1.330308e-01
endloop
endfacet
facet normal 0 0 0
outer loop
vertex -1.761896e-01 1.871108e-01 -3.114769e-01
vertex -1.806062e-01 2.165353e-01 -2.101481e-01
vertex -1.271415e-01 2.016560e-01 -2.757614e-01
endloop
endfacet
facet normal 0 0 0
outer loop
vertex -1.688994e-01 1.420527e-01 -4.251108e-01
vertex -1.761896e-01 1.871108e-01 -3.114769e-01
vertex -1.046073e-01 1.789948e-01 -3.633997e-01
endloop
endfacet
facet normal 0 0 0
outer loop
vertex -2.214884e-01 1.334109e-01 -3.044189e-01
vertex -2.588103e-01 1.278279e-01 -1.859349e-01
vertex -2.194780e-01 1.746967e-01 -2.337808e-01
endloop
endfacet
facet normal 0 0 0
outer loop
vertex -2.921737e-01 1.452070e-01 -5.763862e-02
vertex -2.588103e-01 1.278279e-01 -1.859349e-01
vertex -3.002396e-01 8.307531e-02 -1.003641e-01
endloop
endfacet
facet normal 0 0 0
outer loop
vertex -2.915962e-01 1.712304e-02 -7.812147e-02
vertex -3.407978e-01 7.607009e-02 1.667743e-02
vertex -3.002396e-01 8.307531e-02 -1.003641e-01
endloop
endfacet
facet normal 0 0 0
outer loop
vertex -2.501320e-01 4.866175e-02 -1.771871e-01
vertex -2.235488e-01 4.603918e-04 -2.189177e-01
vertex -2.496891e-01 -1.670869e-02 -1.561734e-01
endloop
endfacet
facet normal 0 0 0
outer loop
vertex -2.915962e-01 1.712304e-02 -7.812147e-02
vertex -2.728878e-01 -6.529483e-02 -7.704314e-02
vertex -3.195701e-01 -1.938826e-02 3.180848e-02
endloop
endfacet
facet normal 0 0 0
outer loop
vertex -2.772816e-01 -1.409730e-01 -5.758623e-02
vertex -2.728878e-01 -6.529483e-02 -7.704314e-02
vertex -2.534643e-01 -1.258842e-01 -1.499877e-01
endloop
endfacet
facet normal 0 0 0
outer loop
vertex -2.615714e-01 -1.894543e-01 -1.135895e-01
vertex -2.772816e-01 -1.409730e-01 -5.758623e-02
vertex -2.534643e-01 -1.258842e-01 -1.499877e-01
endloop
endfacet
facet normal 0 0 0
outer loop
vertex -2.326051e-01 -1.817331e-01 -2.264922e-01
vertex -2.615714e-01 -1.894543e-01 -1.135895e-01
vertex -2.534643e-01 -1.258842e-01 -1.499877e-01
endloop
endfacet
facet normal 0 0 0
outer loop
vertex -2.378847e-01 -6.572128e-02 -2.964459e-01
vertex -1.890547e-01 -5.090137e-02 -3.926758e-01
vertex -2.140255e-01 -1.266010e-01 -3.227435e-01
endloop
endfacet
facet normal 0 0 0
outer loop
vertex -2.140255e-01 -1.266010e-01 -3.227435e-01
vertex -1.890547e-01 -5.090137e-02 -3.926758e-01
vertex -1.959008e-01 -1.526656e-01 -4.247104e-01
endloop
endfacet
facet normal 0 0 0
outer loop
vertex -2.003951e-01 -2.021366e-01 -3.419679e-01
vertex -2.140255e-01 -1.266010e-01 -3.227435e-01
vertex -1.959008e-01 -1.526656e-01 -4.247104e-01
endloop
endfacet
facet normal 0 0 0
outer loop
vertex -2.540602e-01 -6.877174e-02 -2.437661e-01
vertex -2.500979e-01 -1.084423e-01 -2.432797e-01
vertex -2.630048e-01 -6.849333e-02 -1.872995e-01
endloop
endfacet
facet normal 0 0 0
outer loop
vertex -2.460364e-01 -3.564112e-02 -2.348480e-01
vertex -2.540602e-01 -6.877174e-02 -2.437661e-01
vertex -2.630048e-01 -6.849333e-02 -1.872995e-01
endloop
endfacet
facet normal 0 0 0
outer loop
vertex -2.150104e-01 -1.449843e-02 -2.899888e-01
vertex -1.890547e-01 -5.090137e-02 -3.926758e-01
vertex -2.378847e-01 -6.572128e-02 -2.964459e-01
endloop
endfacet
facet normal 0 0 0
outer loop
vertex -2.235488e-01 4.603918e-04 -2.189177e-01
vertex -2.460364e-01 -3.564112e-02 -2.348480e-01
vertex -2.496891e-01 -1.670869e-02 -1.561734e-01
endloop
endfacet
facet normal 0 0 0
outer loop
vertex -1.995332e-01 3.258650e-02 -2.554184e-01
vertex -2.235488e-01 4.603918e-04 -2.189177e-01
vertex -2.501320e-01 4.866175e-02 -1.771871e-01
endloop
endfacet
facet normal 0 0 0
outer loop
vertex -1.791268e-01 5.586900e-02 -2.891119e-01
vertex -1.995332e-01 3.258650e-02 -2.554184e-01
vertex -2.071842e-01 8.385380e-02 -2.530570e-01
endloop
endfacet
facet normal 0 0 0
outer loop
vertex -1.719965e-01 8.377144e-02 -3.348742e-01
vertex -1.791268e-01 5.586900e-02 -2.891119e-01
vertex -2.071842e-01 8.385380e-02 -2.530570e-01
endloop
endfacet
facet normal 0 0 0
outer loop
vertex -1.719965e-01 8.377144e-02 -3.348742e-01
vertex -1.688994e-01 1.420527e-01 -4.251108e-01
vertex -1.717231e-01 4.340144e-02 -4.250847e-01
endloop
endfacet
facet normal 0 0 0
outer loop
vertex -1.797554e-01 2.274354e-02 -3.293243e-01
vertex -1.890547e-01 -5.090137e-02 -3.926758e-01
vertex -2.150104e-01 -1.449843e-02 -2.899888e-01
endloop
endfacet
facet normal 0 0 0
outer loop
vertex 2.109203e-01 9.263710e-03 -4.113629e-01
vertex 1.499950e-01 8.095098e-02 -4.198458e-01
vertex 1.914017e-01 9.505590e-02 -3.465454e-01
endloop
endfacet
facet normal 0 0 0
outer loop
vertex 1.499950e-01 8.095098e-02 -4.198458e-01
vertex 1.212869e-01 1.247695e-01 -3.645902e-01
vertex 1.914017e-01 9.505590e-02 -3.465454e-01
endloop
endfacet
facet normal 0 0 0
outer loop
vertex 1.212869e-01 1.247695e-01 -3.645902e-01
vertex 1.585790e-01 1.531230e-01 -2.733091e-01
vertex 1.914017e-01 9.505590e-02 -3.465454e-01
endloop
endfacet
facet normal 0 0 0
outer loop
vertex 1.914017e-01 9.505590e-02 -3.465454e-01
vertex 1.585790e-01 1.531230e-01 -2.733091e-01
vertex 2.094703e-01 1.025959e-01 -2.573683e-01
endloop
endfacet
facet normal 0 0 0
outer loop
vertex 2.376014e-01 4.723833e-02 -2.819082e-01
vertex 1.914017e-01 9.505590e-02 -3.465454e-01
vertex 2.094703e-01 1.025959e-01 -2.573683e-01
endloop
endfacet
facet normal 0 0 0
outer loop
vertex 2.094703e-01 1.025959e-01 -2.573683e-01
vertex 1.585790e-01 1.531230e-01 -2.733091e-01
vertex 2.088922e-01 1.329585e-01 -1.807621e-01
endloop
endfacet
facet normal 0 0 0
outer loop
vertex 2.397410e-01 7.715040e-02 -1.980937e-01
vertex 2.094703e-01 1.025959e-01 -2.573683e-01
vertex 2.088922e-01 1.329585e-01 -1.807621e-01
endloop
endfacet
facet normal 0 0 0
outer loop
vertex 2.088922e-01 1.329585e-01 -1.807621e-01
vertex 1.585790e-01 1.531230e-01 -2.733091e-01
vertex 1.487204e-01 1.846850e-01 -1.667631e-01
endloop
endfacet
facet normal 0 0 0
outer loop
vertex -9.023094e-02 1.505115e-01 -4.307950e-01
vertex -1.688994e-01 1.420527e-01 -4.251108e-01
vertex -1.046073e-01 1.789948e-01 -3.633997e-01
endloop
endfacet
facet normal 0 0 0
outer loop
vertex -9.023094e-02 1.505115e-01 -4.307950e-01
vertex -1.046073e-01 1.789948e-01 -3.633997e-01
vertex -1.759631e-02 1.345557e-01 -3.969419e-01
endloop
endfacet
facet normal 0 0 0
outer loop
vertex 1.212869e-01 1.247695e-01 -3.645902e-01
vertex 1.499950e-01 8.095098e-02 -4.198458e-01
vertex 7.644514e-02 9.653291e-02 -4.359772e-01
endloop
endfacet
facet normal 0 0 0
outer loop
vertex 8.284790e-02 1.535328e-01 -3.040363e-01
vertex 1.585790e-01 1.531230e-01 -2.733091e-01
vertex 1.212869e-01 1.247695e-01 -3.645902e-01
endloop
endfacet
facet normal 0 0 0
outer loop
vertex 2.974202e-02 1.440703e-01 -3.242188e-01
vertex 5.774826e-02 1.241240e-01 -3.643024e-01
vertex -1.759631e-02 1.345557e-01 -3.969419e-01
endloop
endfacet
facet normal 0 0 0
outer loop
vertex 3.607195e-02 1.721722e-01 -2.581843e-01
vertex 2.974202e-02 1.440703e-01 -3.242188e-01
vertex -3.510643e-03 1.685557e-01 -3.027703e-01
endloop
endfacet
facet normal 0 0 0
outer loop
vertex 9.160855e-02 1.817355e-01 -2.198845e-01
vertex 1.585790e-01 1.531230e-01 -2.733091e-01
vertex 8.284790e-02 1.535328e-01 -3.040363e-01
endloop
endfacet
facet normal 0 0 0
outer loop
vertex 2.511354e-02 2.021614e-01 -1.464438e-01
vertex 3.607195e-02 1.721722e-01 -2.581843e-01
vertex -8.292519e-03 1.940354e-01 -2.425022e-01
endloop
endfacet
facet normal 0 0 0
outer loop
vertex 1.487204e-01 1.846850e-01 -1.667631e-01
vertex 1.585790e-01 1.531230e-01 -2.733091e-01
vertex 9.160855e-02 1.817355e-01 -2.198845e-01
endloop
endfacet
facet normal 0 0 0
outer loop
vertex 9.326456e-02 1.847471e-01 -1.551606e-01
vertex 2.511354e-02 2.021614e-01 -1.464438e-01
vertex 1.052674e-01 1.800371e-01 -8.069627e-02
endloop
endfacet
facet normal 0 0 0
outer loop
vertex 1.849340e-01 1.472751e-01 -7.475749e-02
vertex 2.088922e-01 1.329585e-01 -1.807621e-01
vertex 1.487204e-01 1.846850e-01 -1.667631e-01
endloop
endfacet
facet normal 0 0 0
outer loop
vertex 3.571872e-02 2.014308e-01 1.610611e-02
vertex 1.373391e-01 1.596099e-01 4.841874e-02
vertex 1.052674e-01 1.800371e-01 -8.069627e-02
endloop
endfacet
facet normal 0 0 0
outer loop
vertex 1.849340e-01 1.472751e-01 -7.475749e-02
vertex 2.508887e-01 8.620832e-02 -8.936842e-02
vertex 2.088922e-01 1.329585e-01 -1.807621e-01
endloop
endfacet
facet normal 0 0 0
outer loop
vertex 2.708052e-01 8.837373e-02 1.379676e-01
vertex 3.105108e-01 1.714030e-02 7.878467e-02
vertex 2.766670e-01 6.863005e-02 2.402417e-02
endloop
endfacet
facet normal 0 0 0
outer loop
vertex 2.766670e-01 6.863005e-02 2.402417e-02
vertex 3.105108e-01 1.714030e-02 7.878467e-02
vertex 2.979657e-01 2.965411e-02 -3.610837e-02
endloop
endfacet
facet normal 0 0 0
outer loop
vertex 2.030277e-01 1.382775e-01 1.257988e-01
vertex 2.228888e-01 1.170779e-01 2.841016e-02
vertex 1.373391e-01 1.596099e-01 4.841874e-02
endloop
endfacet
facet normal 0 0 0
outer loop
vertex 2.183730e-01 1.450371e-01 2.399429e-01
vertex 2.030277e-01 1.382775e-01 1.257988e-01
vertex 1.370889e-01 1.480024e-01 1.779299e-01
endloop
endfacet
facet normal 0 0 0
outer loop
vertex 2.980506e-01 7.505009e-02 2.641797e-01
vertex 2.183730e-01 1.450371e-01 2.399429e-01
vertex 2.252540e-01 7.668843e-02 3.623049e-01
endloop
endfacet
facet normal 0 0 0
outer loop
vertex 3.097044e-01 2.710431e-02 1.960368e-01
vertex 3.105108e-01 1.714030e-02 7.878467e-02
vertex 2.708052e-01 8.837373e-02 1.379676e-01
endloop
endfacet
facet normal 0 0 0
outer loop
vertex 3.257357e-01 2.804374e-02 2.649520e-01
vertex 2.980506e-01 7.505009e-02 2.641797e-01
vertex 3.287317e-01 -7.630098e-04 3.508232e-01
endloop
endfacet
facet normal 0 0 0
outer loop
vertex 3.435373e-01 -1.984625e-03 2.457235e-01
vertex 3.257357e-01 2.804374e-02 2.649520e-01
vertex 3.287317e-01 -7.630098e-04 3.508232e-01
endloop
endfacet
facet normal 0 0 0
outer loop
vertex 3.292603e-01 -2.621449e-02 1.642153e-01
vertex 3.105108e-01 1.714030e-02 7.878467e-02
vertex 3.097044e-01 2.710431e-02 1.960368e-01
endloop
endfacet
facet normal 0 0 0
outer loop
vertex 3.260818e-01 -3.689985e-02 8.465203e-02
vertex 3.105108e-01 1.714030e-02 7.878467e-02
vertex 3.292603e-01 -2.621449e-02 1.642153e-01
endloop
endfacet
facet normal 0 0 0
outer loop
vertex 3.183773e-01 -4.612287e-02 -2.207309e-02
vertex 3.105108e-01 1.714030e-02 7.878467e-02
vertex 3.260818e-01 -3.689985e-02 8.465203e-02
endloop
endfacet
facet normal 0 0 0
outer loop
vertex 3.295012e-01 -9.443020e-02 1.179013e-01
vertex 3.183773e-01 -4.612287e-02 -2.207309e-02
vertex 3.260818e-01 -3.689985e-02 8.465203e-02
endloop
endfacet
facet normal 0 0 0
outer loop
vertex 3.615575e-01 -6.213225e-02 2.430189e-01
vertex 3.435373e-01 -1.984625e-03 2.457235e-01
vertex 3.287317e-01 -7.630098e-04 3.508232e-01
endloop
endfacet
facet normal 0 0 0
outer loop
vertex 3.295012e-01 -9.443020e-02 1.179013e-01
vertex 3.260818e-01 -3.689985e-02 8.465203e-02
vertex 3.292603e-01 -2.621449e-02 1.642153e-01
endloop
endfacet
facet normal 0 0 0
outer loop
vertex 3.658758e-01 -1.183848e-01 3.542551e-01
vertex 3.615575e-01 -6.213225e-02 2.430189e-01
vertex 3.287317e-01 -7.630098e-04 3.508232e-01
endloop
endfacet
facet normal 0 0 0
outer loop
vertex 3.171255e-01 -2.034938e-01 3.247794e-01
vertex 2.965797e-01 -2.182468e-01 1.734206e-01
vertex 3.454195e-01 -1.463621e-01 2.309847e-01
endloop
endfacet
facet normal 0 0 0
outer loop
vertex 3.230395e-01 -1.706013e-01 4.162950e-01
vertex 3.658758e-01 -1.183848e-01 3.542551e-01
vertex 2.860958e-01 -1.022685e-01 4.483916e-01
endloop
endfacet
facet normal 0 0 0
outer loop
vertex 2.474441e-01 -1.990165e-01 4.229097e-01
vertex 3.230395e-01 -1.706013e-01 4.162950e-01
vertex 2.860958e-01 -1.022685e-01 4.483916e-01
endloop
endfacet
facet normal 0 0 0
outer loop
vertex 2.189098e-01 -2.545295e-01 2.936204e-01
vertex 2.965797e-01 -2.182468e-01 1.734206e-01
vertex 3.171255e-01 -2.034938e-01 3.247794e-01
endloop
endfacet
facet normal 0 0 0
outer loop
vertex 1.251861e-01 -2.247766e-01 4.097460e-01
vertex 2.474441e-01 -1.990165e-01 4.229097e-01
vertex 1.842823e-01 -1.239833e-01 4.389890e-01
endloop
endfacet
facet normal 0 0 0
outer loop
vertex 1.665576e-01 -2.111568e-01 1.301343e-01
vertex 2.965797e-01 -2.182468e-01 1.734206e-01
vertex 2.189098e-01 -2.545295e-01 2.936204e-01
endloop
endfacet
facet normal 0 0 0
outer loop
vertex 1.238376e-01 -2.356514e-01 2.642958e-01
vertex 1.251861e-01 -2.247766e-01 4.097460e-01
vertex 5.435846e-02 -2.530507e-01 3.056344e-01
endloop
endfacet
facet normal 0 0 0
outer loop
vertex 2.008052e-03 -2.230466e-01 1.404131e-02
vertex 4.505745e-02 -2.342927e-01 1.720812e-01
vertex -7.710058e-02 -2.400045e-01 1.301387e-01
endloop
endfacet
facet normal 0 0 0
outer loop
vertex 2.008052e-03 -2.230466e-01 1.404131e-02
vertex -7.710058e-02 -2.400045e-01 1.301387e-01
vertex -1.014541e-01 -2.278727e-01 -7.542028e-02
endloop
endfacet
facet normal 0 0 0
outer loop
vertex 1.466216e-02 -2.106209e-01 -1.429436e-01
vertex 2.008052e-03 -2.230466e-01 1.404131e-02
vertex -1.014541e-01 -2.278727e-01 -7.542028e-02
endloop
endfacet
facet normal 0 0 0
outer loop
vertex -1.014541e-01 -2.278727e-01 -7.542028e-02
vertex -4.902092e-02 -2.353294e-01 -2.733412e-01
vertex 1.466216e-02 -2.106209e-01 -1.429436e-01
endloop
endfacet
facet normal 0 0 0
outer loop
vertex 1.466216e-02 -2.106209e-01 -1.429436e-01
vertex -4.902092e-02 -2.353294e-01 -2.733412e-01
vertex 3.145359e-02 -2.191493e-01 -2.623298e-01
endloop
endfacet
facet normal 0 0 0
outer loop
vertex -7.710058e-02 -2.400045e-01 1.301387e-01
vertex -1.678161e-01 -2.355667e-01 7.578541e-02
vertex -1.014541e-01 -2.278727e-01 -7.542028e-02
endloop
endfacet
facet normal 0 0 0
outer loop
vertex 7.799975e-02 -2.160548e-01 5.245309e-02
vertex 4.505745e-02 -2.342927e-01 1.720812e-01
vertex 2.008052e-03 -2.230466e-01 1.404131e-02
endloop
endfacet
facet normal 0 0 0
outer loop
vertex 6.388480e-03 -2.230902e-01 3.824643e-01
vertex -6.807996e-02 -2.188199e-01 3.674984e-01
vertex -4.117132e-02 -2.402210e-01 2.781159e-01
endloop
endfacet
facet normal 0 0 0
outer loop
vertex 2.873353e-02 -1.683101e-01 4.575642e-01
vertex -3.413295e-02 -1.175226e-01 4.877035e-01
vertex -6.233048e-02 -1.858540e-01 4.407842e-01
endloop
endfacet
facet normal 0 0 0
outer loop
vertex -6.233048e-02 -1.858540e-01 4.407842e-01
vertex -3.413295e-02 -1.175226e-01 4.877035e-01
vertex -1.260158e-01 -1.242603e-01 5.000000e-01
endloop
endfacet
facet normal 0 0 0
outer loop
vertex 1.251861e-01 -2.247766e-01 4.097460e-01
vertex 6.388480e-03 -2.230902e-01 3.824643e-01
vertex 5.435846e-02 -2.530507e-01 3.056344e-01
endloop
endfacet
facet normal 0 0 0
outer loop
vertex 9.722587e-02 -1.213283e-01 4.675808e-01
vertex 1.251861e-01 -2.247766e-01 4.097460e-01
vertex 1.842823e-01 -1.239833e-01 4.389890e-01
endloop
endfacet
facet normal 0 0 0
outer loop
vertex 2.871429e-02 -1.012207e-01 4.806290e-01
vertex -3.413295e-02 -1.175226e-01 4.877035e-01
vertex 2.873353e-02 -1.683101e-01 4.575642e-01
endloop
endfacet
facet normal 0 0 0
outer loop
vertex 5.235339e-02 -4.195557e-02 4.606916e-01
vertex 9.722587e-02 -1.213283e-01 4.675808e-01
vertex 1.329454e-01 -5.556181e-02 4.506111e-01
endloop
endfacet
facet normal 0 0 0
outer loop
vertex -1.414440e-02 -5.515143e-02 4.742882e-01
vertex -3.413295e-02 -1.175226e-01 4.877035e-01
vertex 2.871429e-02 -1.012207e-01 4.806290e-01
endloop
endfacet
facet normal 0 0 0
outer loop
vertex -5.128654e-02 3.413276e-02 4.231699e-01
vertex 5.235339e-02 -4.195557e-02 4.606916e-01
vertex 1.044696e-01 3.684190e-02 4.003315e-01
endloop
endfacet
facet normal 0 0 0
outer loop
vertex -7.510802e-02 -5.631569e-02 4.809406e-01
vertex -3.413295e-02 -1.175226e-01 4.877035e-01
vertex -1.414440e-02 -5.515143e-02 4.742882e-01
endloop
endfacet
facet normal 0 0 0
outer loop
vertex -1.668938e-01 -2.476407e-02 4.806736e-01
vertex -5.128654e-02 3.413276e-02 4.231699e-01
vertex -2.301111e-01 9.670833e-02 4.396019e-01
endloop
endfacet
facet normal 0 0 0
outer loop
vertex -1.260158e-01 -1.242603e-01 5.000000e-01
vertex -3.413295e-02 -1.175226e-01 4.877035e-01
vertex -7.510802e-02 -5.631569e-02 4.809406e-01
endloop
endfacet
facet normal 0 0 0
outer loop
vertex -2.786125e-01 -1.267117e-02 4.707948e-01
vertex -2.294677e-01 -1.259886e-01 4.381094e-01
vertex -1.668938e-01 -2.476407e-02 4.806736e-01
endloop
endfacet
facet normal 0 0 0
outer loop
vertex -1.494403e-01 -1.849160e-01 4.202506e-01
vertex -6.233048e-02 -1.858540e-01 4.407842e-01
vertex -1.260158e-01 -1.242603e-01 5.000000e-01
endloop
endfacet
facet normal 0 0 0
outer loop
vertex -2.300681e-01 -1.523852e-01 2.796921e-01
vertex -2.294677e-01 -1.259886e-01 4.381094e-01
vertex -2.976426e-01 -6.570283e-02 3.555767e-01
endloop
endfacet
facet normal 0 0 0
outer loop
vertex -1.494403e-01 -1.849160e-01 4.202506e-01
vertex -1.854795e-01 -1.635913e-01 3.648380e-01
vertex -1.326249e-01 -2.015457e-01 3.202167e-01
endloop
endfacet
facet normal 0 0 0
outer loop
vertex -1.022209e-01 -2.220023e-01 2.327068e-01
vertex -1.326249e-01 -2.015457e-01 3.202167e-01
vertex -1.606629e-01 -2.232634e-01 2.041787e-01
endloop
endfacet
facet normal 0 0 0
outer loop
vertex -1.678161e-01 -2.355667e-01 7.578541e-02
vertex -7.710058e-02 -2.400045e-01 1.301387e-01
vertex -1.606629e-01 -2.232634e-01 2.041787e-01
endloop
endfacet
facet normal 0 0 0
outer loop
vertex -2.228828e-01 -1.920034e-01 5.251680e-02
vertex -1.849098e-01 -2.209040e-01 -2.313674e-02
vertex -1.678161e-01 -2.355667e-01 7.578541e-02
endloop
endfacet
facet normal 0 0 0
outer loop
vertex -2.701438e-01 -1.374270e-01 1.326343e-01
vertex -2.204116e-01 -1.995059e-01 1.529559e-01
vertex -2.300681e-01 -1.523852e-01 2.796921e-01
endloop
endfacet
facet normal 0 0 0
outer loop
vertex -2.745434e-01 -1.722158e-01 1.794925e-02
vertex -2.701438e-01 -1.374270e-01 1.326343e-01
vertex -2.854021e-01 -9.905928e-02 3.501713e-02
endloop
endfacet
facet normal 0 0 0
outer loop
vertex -2.735499e-01 -1.878938e-01 -4.817288e-02
vertex -2.745434e-01 -1.722158e-01 1.794925e-02
vertex -2.772816e-01 -1.409730e-01 -5.758623e-02
endloop
endfacet
facet normal 0 0 0
outer loop
vertex -2.615714e-01 -1.894543e-01 -1.135895e-01
vertex -2.735499e-01 -1.878938e-01 -4.817288e-02
vertex -2.772816e-01 -1.409730e-01 -5.758623e-02
endloop
endfacet
facet normal 0 0 0
outer loop
vertex -2.417591e-01 -2.153156e-01 -3.757962e-02
vertex -1.849098e-01 -2.209040e-01 -2.313674e-02
vertex -2.228828e-01 -1.920034e-01 5.251680e-02
endloop
endfacet
facet normal 0 0 0
outer loop
vertex -1.678161e-01 -2.355667e-01 7.578541e-02
vertex -1.849098e-01 -2.209040e-01 -2.313674e-02
vertex -1.014541e-01 -2.278727e-01 -7.542028e-02
endloop
endfacet
facet normal 0 0 0
outer loop
vertex -1.550692e-01 -2.293285e-01 -2.387617e-01
vertex -4.902092e-02 -2.353294e-01 -2.733412e-01
vertex -1.014541e-01 -2.278727e-01 -7.542028e-02
endloop
endfacet
facet normal 0 0 0
outer loop
vertex -2.615714e-01 -1.894543e-01 -1.135895e-01
vertex -2.326051e-01 -1.817331e-01 -2.264922e-01
vertex -1.984101e-01 -2.212052e-01 -1.218680e-01
endloop
endfacet
facet normal 0 0 0
outer loop
vertex -2.003951e-01 -2.021366e-01 -3.419679e-01
vertex -2.326051e-01 -1.817331e-01 -2.264922e-01
vertex -2.140255e-01 -1.266010e-01 -3.227435e-01
endloop
endfacet
facet normal 0 0 0
outer loop
vertex -1.857230e-01 -2.169905e-01 -4.217151e-01
vertex -2.003951e-01 -2.021366e-01 -3.419679e-01
vertex -1.959008e-01 -1.526656e-01 -4.247104e-01
endloop
endfacet
facet normal 0 0 0
outer loop
vertex -1.431771e-01 -2.115990e-01 -4.978306e-01
vertex -1.857230e-01 -2.169905e-01 -4.217151e-01
vertex -1.959008e-01 -1.526656e-01 -4.247104e-01
endloop
endfacet
facet normal 0 0 0
outer loop
vertex -1.346810e-01 -2.442333e-01 -3.733232e-01
vertex -4.902092e-02 -2.353294e-01 -2.733412e-01
vertex -1.550692e-01 -2.293285e-01 -2.387617e-01
endloop
endfacet
facet normal 0 0 0
outer loop
vertex 3.145359e-02 -2.191493e-01 -2.623298e-01
vertex -4.902092e-02 -2.353294e-01 -2.733412e-01
vertex 3.775415e-02 -2.058640e-01 -3.737505e-01
endloop
endfacet
facet normal 0 0 0
outer loop
vertex 6.505533e-02 -2.086483e-01 -2.903805e-01
vertex 3.145359e-02 -2.191493e-01 -2.623298e-01
vertex 3.775415e-02 -2.058640e-01 -3.737505e-01
endloop
endfacet
facet normal 0 0 0
outer loop
vertex 6.505533e-02 -2.086483e-01 -2.903805e-01
vertex 3.775415e-02 -2.058640e-01 -3.737505e-01
vertex 1.037159e-01 -1.932966e-01 -3.063010e-01
endloop
endfacet
facet normal 0 0 0
outer loop
vertex 8.242204e-02 -2.000298e-01 -2.161504e-01
vertex 6.505533e-02 -2.086483e-01 -2.903805e-01
vertex 1.037159e-01 -1.932966e-01 -3.063010e-01
endloop
endfacet
facet normal 0 0 0
outer loop
vertex 1.424157e-01 -1.825376e-01 -2.305716e-01
vertex 8.242204e-02 -2.000298e-01 -2.161504e-01
vertex 1.037159e-01 -1.932966e-01 -3.063010e-01
endloop
endfacet
facet normal 0 0 0
outer loop
vertex 1.424157e-01 -1.825376e-01 -2.305716e-01
vertex 1.037159e-01 -1.932966e-01 -3.063010e-01
vertex 1.433785e-01 -1.534832e-01 -3.054496e-01
endloop
endfacet
facet normal 0 0 0
outer loop
vertex 3.775415e-02 -2.058640e-01 -3.737505e-01
vertex 1.327688e-01 -1.679840e-01 -4.020556e-01
vertex 1.037159e-01 -1.932966e-01 -3.063010e-01
endloop
endfacet
facet normal 0 0 0
outer loop
vertex 6.505533e-02 -2.086483e-01 -2.903805e-01
vertex 8.242204e-02 -2.000298e-01 -2.161504e-01
vertex 3.145359e-02 -2.191493e-01 -2.623298e-01
endloop
endfacet
facet normal 0 0 0
outer loop
vertex 1.037159e-01 -1.932966e-01 -3.063010e-01
vertex 1.327688e-01 -1.679840e-01 -4.020556e-01
vertex 1.433785e-01 -1.534832e-01 -3.054496e-01
endloop
endfacet
facet normal 0 0 0
outer loop
vertex 1.910443e-01 -1.450879e-01 -2.428897e-01
vertex 1.424157e-01 -1.825376e-01 -2.305716e-01
vertex 1.433785e-01 -1.534832e-01 -3.054496e-01
endloop
endfacet
facet normal 0 0 0
outer loop
vertex 1.910443e-01 -1.450879e-01 -2.428897e-01
vertex 1.913356e-01 -1.827553e-01 -1.349845e-01
vertex 1.424157e-01 -1.825376e-01 -2.305716e-01
endloop
endfacet
facet normal 0 0 0
outer loop
vertex 2.197480e-01 -6.821512e-02 -3.504995e-01
vertex 1.843199e-01 -1.203329e-01 -3.336220e-01
vertex 1.853803e-01 -9.186890e-02 -4.339471e-01
endloop
endfacet
facet normal 0 0 0
outer loop
vertex 2.630344e-01 -2.854739e-02 -2.836043e-01
vertex 2.880856e-01 -6.999356e-02 -1.714057e-01
vertex 2.376147e-01 -9.877948e-02 -2.655888e-01
endloop
endfacet
facet normal 0 0 0
outer loop
vertex 2.109203e-01 9.263710e-03 -4.113629e-01
vertex 2.197480e-01 -6.821512e-02 -3.504995e-01
vertex 1.853803e-01 -9.186890e-02 -4.339471e-01
endloop
endfacet
facet normal 0 0 0
outer loop
vertex 2.376014e-01 4.723833e-02 -2.819082e-01
vertex 2.109203e-01 9.263710e-03 -4.113629e-01
vertex 1.914017e-01 9.505590e-02 -3.465454e-01
endloop
endfacet
facet normal 0 0 0
outer loop
vertex 2.397410e-01 7.715040e-02 -1.980937e-01
vertex 2.376014e-01 4.723833e-02 -2.819082e-01
vertex 2.094703e-01 1.025959e-01 -2.573683e-01
endloop
endfacet
facet normal 0 0 0
outer loop
vertex 2.508887e-01 8.620832e-02 -8.936842e-02
vertex 2.397410e-01 7.715040e-02 -1.980937e-01
vertex 2.088922e-01 1.329585e-01 -1.807621e-01
endloop
endfacet
facet normal 0 0 0
outer loop
vertex 2.979657e-01 2.965411e-02 -3.610837e-02
vertex 2.508887e-01 8.620832e-02 -8.936842e-02
vertex 2.766670e-01 6.863005e-02 2.402417e-02
endloop
endfacet
facet normal 0 0 0
outer loop
vertex 2.979657e-01 2.965411e-02 -3.610837e-02
vertex 3.105108e-01 1.714030e-02 7.878467e-02
vertex 3.183773e-01 -4.612287e-02 -2.207309e-02
endloop
endfacet
facet normal 0 0 0
outer loop
vertex 2.806648e-01 1.618877e-02 -1.618348e-01
vertex 2.880856e-01 -6.999356e-02 -1.714057e-01
vertex 2.630344e-01 -2.854739e-02 -2.836043e-01
endloop
endfacet
facet normal 0 0 0
outer loop
vertex 3.295012e-01 -9.443020e-02 1.179013e-01
vertex 3.083123e-01 -1.151863e-01 6.892002e-03
vertex 3.183773e-01 -4.612287e-02 -2.207309e-02
endloop
endfacet
facet normal 0 0 0
outer loop
vertex 2.651313e-01 -1.620696e-01 -4.553856e-02
vertex 3.083123e-01 -1.151863e-01 6.892002e-03
vertex 3.085163e-01 -1.649209e-01 7.127025e-02
endloop
endfacet
facet normal 0 0 0
outer loop
vertex 2.483738e-01 -1.308613e-01 -1.611577e-01
vertex 2.880856e-01 -6.999356e-02 -1.714057e-01
vertex 2.930812e-01 -1.077342e-01 -8.226855e-02
endloop
endfacet
facet normal 0 0 0
outer loop
vertex 2.483738e-01 -1.308613e-01 -1.611577e-01
vertex 1.913356e-01 -1.827553e-01 -1.349845e-01
vertex 1.910443e-01 -1.450879e-01 -2.428897e-01
endloop
endfacet
facet normal 0 0 0
outer loop
vertex 2.651313e-01 -1.620696e-01 -4.553856e-02
vertex 3.085163e-01 -1.649209e-01 7.127025e-02
vertex 2.461328e-01 -2.042618e-01 4.760276e-02
endloop
endfacet
facet normal 0 0 0
outer loop
vertex 1.868311e-01 -1.910032e-01 1.700366e-02
vertex 2.461328e-01 -2.042618e-01 4.760276e-02
vertex 1.665576e-01 -2.111568e-01 1.301343e-01
endloop
endfacet
facet normal 0 0 0
outer loop
vertex 1.720313e-01 -1.819252e-01 -5.438555e-02
vertex 1.913356e-01 -1.827553e-01 -1.349845e-01
vertex 2.141091e-01 -1.924467e-01 -3.779591e-02
endloop
endfacet
facet normal 0 0 0
outer loop
vertex 1.424157e-01 -1.825376e-01 -2.305716e-01
vertex 1.913356e-01 -1.827553e-01 -1.349845e-01
vertex 1.292704e-01 -1.881986e-01 -1.594509e-01
endloop
endfacet
facet normal 0 0 0
outer loop
vertex 8.242204e-02 -2.000298e-01 -2.161504e-01
vertex 1.424157e-01 -1.825376e-01 -2.305716e-01
vertex 1.292704e-01 -1.881986e-01 -1.594509e-01
endloop
endfacet
facet normal 0 0 0
outer loop
vertex 8.242204e-02 -2.000298e-01 -2.161504e-01
vertex 1.466216e-02 -2.106209e-01 -1.429436e-01
vertex 3.145359e-02 -2.191493e-01 -2.623298e-01
endloop
endfacet
facet normal 0 0 0
outer loop
vertex 1.466216e-02 -2.106209e-01 -1.429436e-01
vertex 5.989045e-02 -1.992356e-01 -4.080253e-02
vertex 2.008052e-03 -2.230466e-01 1.404131e-02
endloop
endfacet
facet normal 0 0 0
outer loop
vertex 1.231731e-01 -1.764831e-01 -1.245357e-02
vertex 8.859818e-02 -1.791230e-01 -1.132701e-01
vertex 1.413679e-01 -1.640668e-01 -9.859185e-02
endloop
endfacet
facet normal 0 0 0
outer loop
vertex 2.008052e-03 -2.230466e-01 1.404131e-02
vertex 5.989045e-02 -1.992356e-01 -4.080253e-02
vertex 7.799975e-02 -2.160548e-01 5.245309e-02
endloop
endfacet
facet normal 0 0 0
outer loop
vertex 1.665576e-01 -2.111568e-01 1.301343e-01
vertex 4.505745e-02 -2.342927e-01 1.720812e-01
vertex 7.799975e-02 -2.160548e-01 5.245309e-02
endloop
endfacet
facet normal 0 0 0
outer loop
vertex 1.231731e-01 -1.764831e-01 -1.245357e-02
vertex 1.868311e-01 -1.910032e-01 1.700366e-02
vertex 1.665576e-01 -2.111568e-01 1.301343e-01
endloop
endfacet
facet normal 0 0 0
outer loop
vertex 1.298005e-01 4.369849e-02 -5.000000e-01
vertex 1.585903e-01 -3.516664e-02 -5.000000e-01
vertex 1.566924e-01 -4.913007e-02 -5.000000e-01
endloop
endfacet
facet normal 0 0 0
outer loop
vertex 1.298005e-01 4.369849e-02 -5.000000e-01
vertex 1.566924e-01 -4.913007e-02 -5.000000e-01
vertex 1.355617e-01 -1.129560e-01 -5.000000e-01
endloop
endfacet
facet normal 0 0 0
outer loop
vertex 1.272054e-01 -1.223622e-01 -5.000000e-01
vertex 1.298005e-01 4.369849e-02 -5.000000e-01
vertex 1.355617e-01 -1.129560e-01 -5.000000e-01
endloop
endfacet
facet normal 0 0 0
outer loop
vertex 1.272054e-01 -1.223622e-01 -5.000000e-01
vertex 1.279861e-01 4.603278e-02 -5.000000e-01
vertex 1.298005e-01 4.369849e-02 -5.000000e-01
endloop
endfacet
facet normal 0 0 0
outer loop
vertex 1.250579e-01 4.699067e-02 -5.000000e-01
vertex 1.279861e-01 4.603278e-02 -5.000000e-01
vertex 1.272054e-01 -1.223622e-01 -5.000000e-01
endloop
endfacet
facet normal 0 0 0
outer loop
vertex 6.238071e-02 -1.750964e-01 -5.000000e-01
vertex 1.250579e-01 4.699067e-02 -5.000000e-01
vertex 1.272054e-01 -1.223622e-01 -5.000000e-01
endloop
endfacet
facet normal 0 0 0
outer loop
vertex 4.632311e-02 8.256095e-02 -5.000000e-01
vertex 1.250579e-01 4.699067e-02 -5.000000e-01
vertex 6.238071e-02 -1.750964e-01 -5.000000e-01
endloop
endfacet
facet normal 0 0 0
outer loop
vertex -1.627219e-01 5.000621e-02 -5.000000e-01
vertex 4.632311e-02 8.256095e-02 -5.000000e-01
vertex 6.238071e-02 -1.750964e-01 -5.000000e-01
endloop
endfacet
facet normal 0 0 0
outer loop
vertex -1.627219e-01 5.000621e-02 -5.000000e-01
vertex 1.096358e-02 9.184192e-02 -5.000000e-01
vertex 4.632311e-02 8.256095e-02 -5.000000e-01
endloop
endfacet
facet normal 0 0 0
outer loop
vertex -1.627219e-01 5.000621e-02 -5.000000e-01
vertex -7.437457e-02 1.211368e-01 -5.000000e-01
vertex 1.096358e-02 9.184192e-02 -5.000000e-01
endloop
endfacet
facet normal 0 0 0
outer loop
vertex -1.627219e-01 5.000621e-02 -5.000000e-01
vertex -8.062889e-02 1.234961e-01 -5.000000e-01
vertex -7.437457e-02 1.211368e-01 -5.000000e-01
endloop
endfacet
facet normal 0 0 0
outer loop
vertex -1.627219e-01 5.000621e-02 -5.000000e-01
vertex -8.904108e-02 1.223428e-01 -5.000000e-01
vertex -8.062889e-02 1.234961e-01 -5.000000e-01
endloop
endfacet
facet normal 0 0 0
outer loop
vertex -1.629509e-01 9.682126e-02 -5.000000e-01
vertex -8.904108e-02 1.223428e-01 -5.000000e-01
vertex -1.627219e-01 5.000621e-02 -5.000000e-01
endloop
endfacet
facet normal 0 0 0
outer loop
vertex -1.638997e-01 6.364477e-02 -5.000000e-01
vertex -1.629509e-01 9.682126e-02 -5.000000e-01
vertex -1.627219e-01 5.000621e-02 -5.000000e-01
endloop
endfacet
facet normal 0 0 0
outer loop
vertex -1.461198e-01 -1.102657e-01 -5.000000e-01
vertex -1.443503e-01 -1.027017e-01 -5.000000e-01
vertex -1.427526e-01 -1.872782e-01 -5.000000e-01
endloop
endfacet
facet normal 0 0 0
outer loop
vertex -1.596861e-01 -1.796642e-02 -5.000000e-01
vertex -1.581631e-01 -2.784546e-03 -5.000000e-01
vertex -1.443503e-01 -1.027017e-01 -5.000000e-01
endloop
endfacet
facet normal 0 0 0
outer loop
vertex -1.627219e-01 5.000621e-02 -5.000000e-01
vertex 6.238071e-02 -1.750964e-01 -5.000000e-01
vertex 6.029388e-02 -1.767939e-01 -5.000000e-01
endloop
endfacet
facet normal 0 0 0
outer loop
vertex -1.627219e-01 5.000621e-02 -5.000000e-01
vertex 6.029388e-02 -1.767939e-01 -5.000000e-01
vertex 5.936616e-02 -1.771174e-01 -5.000000e-01
endloop
endfacet
facet normal 0 0 0
outer loop
vertex -1.627219e-01 5.000621e-02 -5.000000e-01
vertex 5.936616e-02 -1.771174e-01 -5.000000e-01
vertex 5.763078e-02 -1.772162e-01 -5.000000e-01
endloop
endfacet
facet normal 0 0 0
outer loop
vertex -1.627219e-01 5.000621e-02 -5.000000e-01
vertex 5.763078e-02 -1.772162e-01 -5.000000e-01
vertex -1.257670e-02 -1.770203e-01 -5.000000e-01
endloop
endfacet
facet normal 0 0 0
outer loop
vertex -1.627219e-01 5.000621e-02 -5.000000e-01
vertex -1.257670e-02 -1.770203e-01 -5.000000e-01
vertex -4.557239e-02 -1.864555e-01 -5.000000e-01
endloop
endfacet
facet normal 0 0 0
outer loop
vertex -1.627219e-01 5.000621e-02 -5.000000e-01
vertex -4.557239e-02 -1.864555e-01 -5.000000e-01
vertex -1.443503e-01 -1.027017e-01 -5.000000e-01
endloop
endfacet
facet normal 0 0 0
outer loop
vertex -1.443503e-01 -1.027017e-01 -5.000000e-01
vertex -4.557239e-02 -1.864555e-01 -5.000000e-01
vertex -1.396706e-01 -2.097197e-01 -5.000000e-01
endloop
endfacet
facet normal 0 0 0
outer loop
vertex -1.443503e-01 -1.027017e-01 -5.000000e-01
vertex -1.396706e-01 -2.097197e-01 -5.000000e-01
vertex -1.427526e-01 -1.872782e-01 -5.000000e-01
endloop
endfacet
facet normal 0 0 0
outer loop
vertex -1.627219e-01 5.000621e-02 -5.000000e-01
vertex -1.443503e-01 -1.027017e-01 -5.000000e-01
vertex -1.581631e-01 -2.784546e-03 -5.000000e-01
endloop
endfacet
endsolid D:/VSprojects/TaihuStone/model/ori/RockSetEr_rotated.stl
